<svg width="150" height="150" viewBox="0 0 150 150" fill="none" xmlns="http://www.w3.org/2000/svg">
<path d="M75 25C81.6304 25 87.9893 27.6339 92.6777 32.3223C97.3661 37.0107 100 43.3696 100 50C100 56.6304 97.3661 62.9893 92.6777 67.6777C87.9893 72.3661 81.6304 75 75 75C68.3696 75 62.0107 72.3661 57.3223 67.6777C52.6339 62.9893 50 56.6304 50 50C50 43.3696 52.6339 37.0107 57.3223 32.3223C62.0107 27.6339 68.3696 25 75 25ZM75 87.5C102.625 87.5 125 98.6875 125 112.5V125H25V112.5C25 98.6875 47.375 87.5 75 87.5Z" fill="#0B132B"/>
</svg>
