<svg xmlns="http://www.w3.org/2000/svg" xmlns:xlink="http://www.w3.org/1999/xlink" width="500" zoomAndPan="magnify" viewBox="0 0 375 374.999991" height="500" preserveAspectRatio="xMidYMid meet" version="1.0"><defs><g/><clipPath id="9ac236d2e2"><path d="M 117.226562 81.277344 L 257.476562 81.277344 L 257.476562 222.277344 L 117.226562 222.277344 Z M 117.226562 81.277344 " clip-rule="nonzero"/></clipPath></defs><g clip-path="url(#9ac236d2e2)"><path fill="#3a506b" d="M 257.421875 146.355469 C 257.425781 146.304688 257.417969 146.253906 257.402344 146.207031 C 257.398438 146.207031 257.402344 146.203125 257.398438 146.199219 L 243.421875 109.429688 C 243.421875 109.425781 243.417969 109.421875 243.414062 109.417969 C 243.390625 109.363281 243.359375 109.3125 243.308594 109.273438 L 212.574219 84.777344 C 212.523438 84.738281 212.464844 84.710938 212.402344 84.699219 C 212.398438 84.699219 212.394531 84.699219 212.386719 84.699219 L 187.300781 81.28125 C 187.25 81.273438 187.199219 81.277344 187.148438 81.292969 L 175.191406 84.695312 L 174.851562 84.695312 C 174.785156 84.695312 174.71875 84.714844 174.664062 84.75 L 174.359375 84.933594 L 144.925781 93.3125 C 144.917969 93.316406 144.910156 93.324219 144.902344 93.328125 C 144.863281 93.34375 144.828125 93.363281 144.792969 93.390625 C 144.78125 93.402344 144.769531 93.410156 144.757812 93.421875 C 144.75 93.429688 144.742188 93.433594 144.734375 93.441406 L 118.960938 126.960938 C 118.953125 126.96875 118.953125 126.984375 118.945312 126.992188 C 118.9375 127.007812 118.925781 127.019531 118.917969 127.039062 C 118.914062 127.046875 118.914062 127.058594 118.910156 127.070312 C 118.902344 127.089844 118.898438 127.109375 118.894531 127.128906 C 118.894531 127.140625 118.886719 127.152344 118.886719 127.164062 L 117.265625 156.644531 C 117.261719 156.667969 117.265625 156.695312 117.269531 156.722656 L 119.644531 171.628906 C 119.648438 171.648438 119.65625 171.664062 119.664062 171.683594 C 119.667969 171.699219 119.667969 171.710938 119.671875 171.722656 C 119.671875 171.726562 119.675781 171.726562 119.675781 171.730469 C 119.679688 171.734375 119.679688 171.738281 119.679688 171.742188 L 131.679688 194.640625 C 131.699219 194.679688 131.730469 194.714844 131.761719 194.746094 L 145.835938 207.210938 C 145.859375 207.234375 145.882812 207.257812 145.910156 207.277344 L 162.1875 218.265625 C 162.230469 218.292969 162.28125 218.3125 162.335938 218.324219 L 187.867188 222.300781 L 187.871094 222.300781 C 187.875 222.300781 187.875 222.300781 187.875 222.300781 C 187.894531 222.304688 187.914062 222.304688 187.933594 222.304688 C 187.957031 222.304688 187.984375 222.304688 188.007812 222.296875 C 188.007812 222.296875 188.007812 222.296875 188.011719 222.296875 C 188.011719 222.296875 188.015625 222.296875 188.015625 222.296875 C 188.015625 222.296875 188.019531 222.296875 188.019531 222.292969 C 188.023438 222.296875 188.023438 222.292969 188.023438 222.292969 C 188.023438 222.292969 188.027344 222.292969 188.027344 222.292969 C 188.027344 222.292969 188.027344 222.292969 188.03125 222.292969 C 188.03125 222.292969 188.03125 222.292969 188.035156 222.289062 L 229.753906 210.074219 C 229.769531 210.070312 229.78125 210.054688 229.792969 210.046875 C 229.835938 210.03125 229.867188 210.007812 229.898438 209.976562 C 229.910156 209.964844 229.933594 209.960938 229.945312 209.945312 L 255.328125 176.410156 C 255.367188 176.355469 255.386719 176.292969 255.394531 176.230469 C 255.394531 176.222656 255.402344 176.21875 255.402344 176.210938 Z M 254.6875 175.894531 L 243.710938 178.675781 L 256.542969 148.480469 Z M 210.140625 171.617188 L 169.691406 157.355469 L 200.199219 135.347656 Z M 200.203125 134.160156 L 169.777344 114.222656 L 209.332031 102.886719 Z M 199.765625 134.753906 L 169.273438 156.753906 L 169.273438 114.769531 Z M 168.539062 156.878906 L 133.929688 139.863281 L 168.539062 114.8125 Z M 176.03125 197.675781 L 143.042969 179.15625 L 168.65625 158.148438 Z M 169.382812 158.03125 L 209.921875 172.320312 L 176.789062 197.726562 Z M 210.363281 172.90625 L 212.5 203.285156 L 177.453125 198.144531 Z M 210.835938 171.363281 L 200.910156 135.160156 L 234.660156 138.535156 Z M 235.132812 139.140625 L 242.617188 178.734375 L 211.3125 171.957031 Z M 243.214844 177.953125 L 235.816406 138.808594 L 256.566406 146.542969 Z M 235.183594 137.386719 L 210.722656 102.910156 L 242.625 109.839844 Z M 234.566406 137.789062 L 200.890625 134.417969 L 210.015625 103.179688 Z M 169.386719 113.570312 L 175.117188 85.605469 L 208.859375 102.257812 Z M 168.628906 113.609375 L 142.746094 104.9375 L 174.324219 85.816406 Z M 168.109375 114.210938 L 133.820312 139.035156 L 142.136719 105.511719 Z M 133.011719 139.234375 L 119.789062 127.175781 L 141.207031 106.207031 Z M 141.546875 104.84375 L 122.730469 123.265625 L 144.167969 95.386719 Z M 132.78125 140.019531 L 120.34375 169.808594 L 119.636719 128.03125 Z M 133.121094 141.113281 L 141.882812 178.652344 L 120.496094 171.351562 Z M 133.753906 140.597656 L 168.230469 157.546875 L 142.617188 178.554688 Z M 175.582031 198.269531 L 146.421875 206.496094 L 142.855469 179.894531 Z M 176.339844 198.820312 L 187.207031 221.289062 L 147.320312 207.007812 Z M 188.070312 221.378906 L 177.171875 198.847656 L 211.953125 203.949219 Z M 213.21875 202.984375 L 211.085938 172.660156 L 242.253906 179.410156 Z M 242.132812 180.457031 L 229.457031 209.257812 L 213.640625 203.589844 Z M 243.34375 179.527344 L 254.109375 176.800781 L 231.253906 207 Z M 235.777344 138.007812 L 243.140625 110.75 L 256.425781 145.703125 Z M 212.613281 85.753906 L 241.617188 108.867188 L 210.285156 102.058594 Z M 187.277344 82.019531 L 206.914062 84.695312 L 177.882812 84.695312 Z M 211.917969 85.433594 L 209.582031 101.792969 L 176.429688 85.433594 Z M 142.476562 104.242188 L 145.328125 93.964844 L 171.972656 86.378906 Z M 118 156.644531 L 119.058594 137.398438 L 119.550781 166.378906 Z M 132.300781 194.238281 L 122.5625 175.65625 L 143.746094 204.378906 Z M 121 172.300781 L 142.058594 179.488281 L 145.558594 205.59375 Z M 148.734375 208.296875 L 184.15625 220.976562 L 162.527344 217.605469 Z M 212.957031 204.128906 L 228.464844 209.6875 L 189.851562 220.992188 Z M 212.957031 204.128906 " fill-opacity="1" fill-rule="nonzero"/></g><g fill="#3a506b" fill-opacity="1"><g transform="translate(46.875001, 265.19717)"><g><path d="M 31.0625 -3.953125 C 30.375 -3.296875 29.429688 -2.628906 28.234375 -1.953125 C 27.035156 -1.285156 25.664062 -0.722656 24.125 -0.265625 C 22.59375 0.179688 20.957031 0.40625 19.21875 0.40625 C 17.050781 0.40625 15.035156 0.0546875 13.171875 -0.640625 C 11.316406 -1.335938 9.6875 -2.332031 8.28125 -3.625 C 6.882812 -4.914062 5.796875 -6.476562 5.015625 -8.3125 C 4.234375 -10.144531 3.84375 -12.1875 3.84375 -14.4375 C 3.84375 -16.550781 4.253906 -18.5 5.078125 -20.28125 C 5.898438 -22.070312 7.03125 -23.628906 8.46875 -24.953125 C 9.914062 -26.273438 11.570312 -27.300781 13.4375 -28.03125 C 15.3125 -28.757812 17.296875 -29.125 19.390625 -29.125 C 21.117188 -29.125 22.757812 -28.878906 24.3125 -28.390625 C 25.863281 -27.910156 27.25 -27.300781 28.46875 -26.5625 C 29.695312 -25.820312 30.6875 -25.039062 31.4375 -24.21875 L 28.625 -20.75 C 27.332031 -21.90625 25.910156 -22.851562 24.359375 -23.59375 C 22.804688 -24.332031 21.066406 -24.703125 19.140625 -24.703125 C 17.796875 -24.703125 16.472656 -24.46875 15.171875 -24 C 13.878906 -23.539062 12.722656 -22.863281 11.703125 -21.96875 C 10.691406 -21.070312 9.882812 -19.988281 9.28125 -18.71875 C 8.675781 -17.457031 8.375 -16.03125 8.375 -14.4375 C 8.375 -12.125 8.910156 -10.191406 9.984375 -8.640625 C 11.054688 -7.085938 12.453125 -5.925781 14.171875 -5.15625 C 15.890625 -4.382812 17.738281 -4 19.71875 -4 C 21.125 -4 22.390625 -4.179688 23.515625 -4.546875 C 24.640625 -4.921875 25.648438 -5.390625 26.546875 -5.953125 C 27.441406 -6.523438 28.21875 -7.082031 28.875 -7.625 Z M 31.0625 -3.953125 "/></g></g></g><g fill="#3a506b" fill-opacity="1"><g transform="translate(81.845031, 265.19717)"><g><path d="M 29.5 -10.84375 C 29.5 -8.644531 28.941406 -6.695312 27.828125 -5 C 26.710938 -3.3125 25.191406 -1.988281 23.265625 -1.03125 C 21.335938 -0.0703125 19.125 0.40625 16.625 0.40625 C 14.125 0.40625 11.898438 -0.0703125 9.953125 -1.03125 C 8.015625 -1.988281 6.488281 -3.3125 5.375 -5 C 4.269531 -6.695312 3.71875 -8.644531 3.71875 -10.84375 C 3.71875 -13.050781 4.269531 -15 5.375 -16.6875 C 6.488281 -18.375 8.015625 -19.695312 9.953125 -20.65625 C 11.898438 -21.625 14.125 -22.109375 16.625 -22.109375 C 19.125 -22.109375 21.335938 -21.625 23.265625 -20.65625 C 25.191406 -19.695312 26.710938 -18.375 27.828125 -16.6875 C 28.941406 -15 29.5 -13.050781 29.5 -10.84375 Z M 25.15625 -10.84375 C 25.1875 -12.300781 24.820312 -13.585938 24.0625 -14.703125 C 23.3125 -15.816406 22.289062 -16.679688 21 -17.296875 C 19.707031 -17.921875 18.25 -18.234375 16.625 -18.234375 C 15.03125 -18.234375 13.570312 -17.921875 12.25 -17.296875 C 10.925781 -16.679688 9.882812 -15.816406 9.125 -14.703125 C 8.375 -13.585938 8.015625 -12.300781 8.046875 -10.84375 C 8.015625 -9.414062 8.375 -8.144531 9.125 -7.03125 C 9.882812 -5.914062 10.925781 -5.039062 12.25 -4.40625 C 13.570312 -3.78125 15.03125 -3.46875 16.625 -3.46875 C 18.25 -3.46875 19.710938 -3.78125 21.015625 -4.40625 C 22.316406 -5.039062 23.335938 -5.914062 24.078125 -7.03125 C 24.828125 -8.144531 25.1875 -9.414062 25.15625 -10.84375 Z M 25.15625 -10.84375 "/></g></g></g><g fill="#3a506b" fill-opacity="1"><g transform="translate(115.041821, 265.19717)"><g><path d="M 28.34375 -30.53125 L 28.34375 0 L 24.09375 0 L 24.09375 -3.46875 C 23.59375 -2.800781 22.894531 -2.171875 22 -1.578125 C 21.113281 -0.992188 20.09375 -0.515625 18.9375 -0.140625 C 17.78125 0.222656 16.554688 0.40625 15.265625 0.40625 C 12.921875 0.40625 10.867188 -0.0703125 9.109375 -1.03125 C 7.347656 -1.988281 5.972656 -3.320312 4.984375 -5.03125 C 3.992188 -6.738281 3.5 -8.675781 3.5 -10.84375 C 3.5 -13.050781 4.007812 -15 5.03125 -16.6875 C 6.050781 -18.375 7.453125 -19.695312 9.234375 -20.65625 C 11.023438 -21.625 13.0625 -22.109375 15.34375 -22.109375 C 17.269531 -22.109375 19.003906 -21.769531 20.546875 -21.09375 C 22.085938 -20.425781 23.269531 -19.640625 24.09375 -18.734375 L 24.09375 -30.53125 Z M 16.046875 -3.375 C 17.671875 -3.375 19.097656 -3.703125 20.328125 -4.359375 C 21.566406 -5.023438 22.53125 -5.914062 23.21875 -7.03125 C 23.90625 -8.144531 24.25 -9.414062 24.25 -10.84375 C 24.25 -12.25 23.90625 -13.515625 23.21875 -14.640625 C 22.53125 -15.765625 21.566406 -16.648438 20.328125 -17.296875 C 19.097656 -17.953125 17.671875 -18.28125 16.046875 -18.28125 C 14.453125 -18.28125 13.035156 -17.953125 11.796875 -17.296875 C 10.554688 -16.648438 9.585938 -15.765625 8.890625 -14.640625 C 8.191406 -13.515625 7.84375 -12.25 7.84375 -10.84375 C 7.84375 -9.414062 8.191406 -8.144531 8.890625 -7.03125 C 9.585938 -5.914062 10.554688 -5.023438 11.796875 -4.359375 C 13.035156 -3.703125 14.453125 -3.375 16.046875 -3.375 Z M 16.046875 -3.375 "/></g></g></g><g fill="#3a506b" fill-opacity="1"><g transform="translate(148.815943, 265.19717)"><g><path d="M 27.09375 -2.84375 L 27.0625 -2.84375 C 26.34375 -2.289062 25.441406 -1.757812 24.359375 -1.25 C 23.273438 -0.75 22.078125 -0.347656 20.765625 -0.046875 C 19.460938 0.253906 18.132812 0.40625 16.78125 0.40625 C 14.144531 0.40625 11.828125 -0.0664062 9.828125 -1.015625 C 7.835938 -1.960938 6.285156 -3.265625 5.171875 -4.921875 C 4.054688 -6.585938 3.5 -8.476562 3.5 -10.59375 C 3.5 -13.019531 4.085938 -15.09375 5.265625 -16.8125 C 6.453125 -18.53125 8.019531 -19.847656 9.96875 -20.765625 C 11.925781 -21.691406 14.078125 -22.15625 16.421875 -22.15625 C 18.566406 -22.15625 20.519531 -21.707031 22.28125 -20.8125 C 24.039062 -19.914062 25.441406 -18.679688 26.484375 -17.109375 C 27.523438 -15.546875 28.046875 -13.71875 28.046875 -11.625 L 28.015625 -9.5625 L 7.84375 -9.5625 C 8.164062 -7.695312 9.191406 -6.21875 10.921875 -5.125 C 12.660156 -4.039062 14.820312 -3.5 17.40625 -3.5 C 19.332031 -3.5 20.90625 -3.785156 22.125 -4.359375 C 23.351562 -4.941406 24.351562 -5.492188 25.125 -6.015625 Z M 16.421875 -18.234375 C 14.296875 -18.234375 12.457031 -17.832031 10.90625 -17.03125 C 9.351562 -16.238281 8.359375 -14.878906 7.921875 -12.953125 L 23.71875 -12.953125 L 23.71875 -13.484375 C 23.601562 -14.421875 23.1875 -15.242188 22.46875 -15.953125 C 21.757812 -16.671875 20.867188 -17.226562 19.796875 -17.625 C 18.722656 -18.03125 17.597656 -18.234375 16.421875 -18.234375 Z M 16.421875 -18.234375 "/></g></g></g><g fill="#3a506b" fill-opacity="1"><g transform="translate(180.940537, 265.19717)"><g><path d="M 7.171875 -21.65625 L 15.21875 -5.078125 L 23.515625 -21.65625 L 28.09375 -21.65625 L 16.78125 0 L 13.28125 0 L 2.34375 -21.65625 Z M 7.171875 -21.65625 "/></g></g></g><g fill="#3a506b" fill-opacity="1"><g transform="translate(211.415602, 265.19717)"><g><path d="M 27.09375 -2.84375 L 27.0625 -2.84375 C 26.34375 -2.289062 25.441406 -1.757812 24.359375 -1.25 C 23.273438 -0.75 22.078125 -0.347656 20.765625 -0.046875 C 19.460938 0.253906 18.132812 0.40625 16.78125 0.40625 C 14.144531 0.40625 11.828125 -0.0664062 9.828125 -1.015625 C 7.835938 -1.960938 6.285156 -3.265625 5.171875 -4.921875 C 4.054688 -6.585938 3.5 -8.476562 3.5 -10.59375 C 3.5 -13.019531 4.085938 -15.09375 5.265625 -16.8125 C 6.453125 -18.53125 8.019531 -19.847656 9.96875 -20.765625 C 11.925781 -21.691406 14.078125 -22.15625 16.421875 -22.15625 C 18.566406 -22.15625 20.519531 -21.707031 22.28125 -20.8125 C 24.039062 -19.914062 25.441406 -18.679688 26.484375 -17.109375 C 27.523438 -15.546875 28.046875 -13.71875 28.046875 -11.625 L 28.015625 -9.5625 L 7.84375 -9.5625 C 8.164062 -7.695312 9.191406 -6.21875 10.921875 -5.125 C 12.660156 -4.039062 14.820312 -3.5 17.40625 -3.5 C 19.332031 -3.5 20.90625 -3.785156 22.125 -4.359375 C 23.351562 -4.941406 24.351562 -5.492188 25.125 -6.015625 Z M 16.421875 -18.234375 C 14.296875 -18.234375 12.457031 -17.832031 10.90625 -17.03125 C 9.351562 -16.238281 8.359375 -14.878906 7.921875 -12.953125 L 23.71875 -12.953125 L 23.71875 -13.484375 C 23.601562 -14.421875 23.1875 -15.242188 22.46875 -15.953125 C 21.757812 -16.671875 20.867188 -17.226562 19.796875 -17.625 C 18.722656 -18.03125 17.597656 -18.234375 16.421875 -18.234375 Z M 16.421875 -18.234375 "/></g></g></g><g fill="#3a506b" fill-opacity="1"><g transform="translate(243.540196, 265.19717)"><g><path d="M 21.28125 -16.75 C 20.8125 -17 20.238281 -17.203125 19.5625 -17.359375 C 18.894531 -17.523438 18.242188 -17.609375 17.609375 -17.609375 C 16.316406 -17.609375 15.140625 -17.3125 14.078125 -16.71875 C 13.023438 -16.132812 12.195312 -15.359375 11.59375 -14.390625 C 10.988281 -13.429688 10.6875 -12.390625 10.6875 -11.265625 L 10.6875 0 L 6.390625 0 L 6.390625 -21.65625 L 10.6875 -21.65625 L 10.6875 -17.15625 C 11.507812 -18.613281 12.617188 -19.800781 14.015625 -20.71875 C 15.421875 -21.644531 16.894531 -22.109375 18.4375 -22.109375 C 19.207031 -22.109375 19.957031 -22.03125 20.6875 -21.875 C 21.414062 -21.726562 21.988281 -21.519531 22.40625 -21.25 Z M 21.28125 -16.75 "/></g></g></g><g fill="#3a506b" fill-opacity="1"><g transform="translate(268.901721, 265.19717)"><g><path d="M 21.125 -15.84375 C 20.132812 -16.632812 18.953125 -17.289062 17.578125 -17.8125 C 16.203125 -18.34375 14.90625 -18.609375 13.6875 -18.609375 C 12.925781 -18.609375 12.125 -18.535156 11.28125 -18.390625 C 10.445312 -18.253906 9.734375 -18 9.140625 -17.625 C 8.546875 -17.257812 8.25 -16.71875 8.25 -16 C 8.28125 -15.375 8.578125 -14.851562 9.140625 -14.4375 C 9.703125 -14.019531 10.445312 -13.679688 11.375 -13.421875 C 12.3125 -13.160156 13.347656 -12.921875 14.484375 -12.703125 C 15.578125 -12.515625 16.664062 -12.269531 17.75 -11.96875 C 18.84375 -11.664062 19.820312 -11.285156 20.6875 -10.828125 C 21.550781 -10.367188 22.242188 -9.773438 22.765625 -9.046875 C 23.285156 -8.328125 23.546875 -7.429688 23.546875 -6.359375 C 23.546875 -4.898438 23.113281 -3.664062 22.25 -2.65625 C 21.382812 -1.65625 20.238281 -0.894531 18.8125 -0.375 C 17.382812 0.144531 15.832031 0.40625 14.15625 0.40625 C 12.03125 0.40625 10.039062 0.113281 8.1875 -0.46875 C 6.332031 -1.0625 4.769531 -2.101562 3.5 -3.59375 L 6.390625 -6.140625 C 7.328125 -5.210938 8.425781 -4.476562 9.6875 -3.9375 C 10.957031 -3.40625 12.40625 -3.140625 14.03125 -3.140625 C 14.769531 -3.140625 15.554688 -3.210938 16.390625 -3.359375 C 17.234375 -3.515625 17.941406 -3.789062 18.515625 -4.1875 C 19.097656 -4.582031 19.390625 -5.140625 19.390625 -5.859375 C 19.390625 -6.492188 19.097656 -7.003906 18.515625 -7.390625 C 17.941406 -7.773438 17.171875 -8.082031 16.203125 -8.3125 C 15.242188 -8.539062 14.21875 -8.753906 13.125 -8.953125 C 11.519531 -9.285156 10.023438 -9.675781 8.640625 -10.125 C 7.253906 -10.582031 6.132812 -11.25 5.28125 -12.125 C 4.425781 -13.007812 4 -14.25 4 -15.84375 C 4 -17.132812 4.429688 -18.242188 5.296875 -19.171875 C 6.160156 -20.109375 7.316406 -20.832031 8.765625 -21.34375 C 10.210938 -21.851562 11.816406 -22.109375 13.578125 -22.109375 C 14.671875 -22.109375 15.828125 -21.988281 17.046875 -21.75 C 18.273438 -21.519531 19.453125 -21.148438 20.578125 -20.640625 C 21.710938 -20.128906 22.664062 -19.460938 23.4375 -18.640625 Z M 21.125 -15.84375 "/></g></g></g><g fill="#3a506b" fill-opacity="1"><g transform="translate(295.99524, 265.19717)"><g><path d="M 27.09375 -2.84375 L 27.0625 -2.84375 C 26.34375 -2.289062 25.441406 -1.757812 24.359375 -1.25 C 23.273438 -0.75 22.078125 -0.347656 20.765625 -0.046875 C 19.460938 0.253906 18.132812 0.40625 16.78125 0.40625 C 14.144531 0.40625 11.828125 -0.0664062 9.828125 -1.015625 C 7.835938 -1.960938 6.285156 -3.265625 5.171875 -4.921875 C 4.054688 -6.585938 3.5 -8.476562 3.5 -10.59375 C 3.5 -13.019531 4.085938 -15.09375 5.265625 -16.8125 C 6.453125 -18.53125 8.019531 -19.847656 9.96875 -20.765625 C 11.925781 -21.691406 14.078125 -22.15625 16.421875 -22.15625 C 18.566406 -22.15625 20.519531 -21.707031 22.28125 -20.8125 C 24.039062 -19.914062 25.441406 -18.679688 26.484375 -17.109375 C 27.523438 -15.546875 28.046875 -13.71875 28.046875 -11.625 L 28.015625 -9.5625 L 7.84375 -9.5625 C 8.164062 -7.695312 9.191406 -6.21875 10.921875 -5.125 C 12.660156 -4.039062 14.820312 -3.5 17.40625 -3.5 C 19.332031 -3.5 20.90625 -3.785156 22.125 -4.359375 C 23.351562 -4.941406 24.351562 -5.492188 25.125 -6.015625 Z M 16.421875 -18.234375 C 14.296875 -18.234375 12.457031 -17.832031 10.90625 -17.03125 C 9.351562 -16.238281 8.359375 -14.878906 7.921875 -12.953125 L 23.71875 -12.953125 L 23.71875 -13.484375 C 23.601562 -14.421875 23.1875 -15.242188 22.46875 -15.953125 C 21.757812 -16.671875 20.867188 -17.226562 19.796875 -17.625 C 18.722656 -18.03125 17.597656 -18.234375 16.421875 -18.234375 Z M 16.421875 -18.234375 "/></g></g></g><g fill="#3a506b" fill-opacity="1"><g transform="translate(106.450757, 289.772911)"><g><path d="M 6.03125 -9.09375 C 6.8125 -9.09375 7.492188 -8.972656 8.078125 -8.734375 C 8.671875 -8.503906 9.164062 -8.175781 9.5625 -7.75 C 9.96875 -7.332031 10.269531 -6.847656 10.46875 -6.296875 C 10.664062 -5.742188 10.765625 -5.160156 10.765625 -4.546875 C 10.765625 -3.710938 10.585938 -2.953125 10.234375 -2.265625 C 9.878906 -1.578125 9.347656 -1.023438 8.640625 -0.609375 C 7.941406 -0.203125 7.070312 0 6.03125 0 L 1.890625 0 L 1.890625 -9.09375 Z M 5.96875 -1.359375 C 6.75 -1.359375 7.382812 -1.5 7.875 -1.78125 C 8.363281 -2.070312 8.722656 -2.457031 8.953125 -2.9375 C 9.179688 -3.425781 9.296875 -3.960938 9.296875 -4.546875 C 9.296875 -5.117188 9.179688 -5.644531 8.953125 -6.125 C 8.722656 -6.613281 8.363281 -7.003906 7.875 -7.296875 C 7.382812 -7.597656 6.75 -7.75 5.96875 -7.75 L 3.28125 -7.75 L 3.28125 -1.359375 Z M 5.96875 -1.359375 "/></g></g></g><g fill="#3a506b" fill-opacity="1"><g transform="translate(118.420086, 289.772911)"><g><path d="M 1.890625 -9.09375 L 8.625 -9.09375 L 8.625 -7.75 L 3.28125 -7.75 L 3.28125 -5.34375 L 7.921875 -5.34375 L 7.921875 -3.984375 L 3.28125 -3.984375 L 3.28125 -1.359375 L 8.625 -1.359375 L 8.625 0 L 1.890625 0 Z M 1.890625 -9.09375 "/></g></g></g><g fill="#3a506b" fill-opacity="1"><g transform="translate(128.647956, 289.772911)"><g><path d="M 10.21875 -9.09375 L 6.3125 0 L 4.765625 0 L 0.8125 -9.09375 L 2.40625 -9.09375 L 4.71875 -3.625 C 4.84375 -3.300781 4.984375 -2.957031 5.140625 -2.59375 C 5.304688 -2.226562 5.460938 -1.878906 5.609375 -1.546875 C 5.722656 -1.878906 5.851562 -2.226562 6 -2.59375 C 6.15625 -2.957031 6.296875 -3.296875 6.421875 -3.609375 L 8.5625 -9.09375 Z M 10.21875 -9.09375 "/></g></g></g><g fill="#3a506b" fill-opacity="1"><g transform="translate(139.668581, 289.772911)"><g><path d="M 1.890625 -9.09375 L 8.625 -9.09375 L 8.625 -7.75 L 3.28125 -7.75 L 3.28125 -5.34375 L 7.921875 -5.34375 L 7.921875 -3.984375 L 3.28125 -3.984375 L 3.28125 -1.359375 L 8.625 -1.359375 L 8.625 0 L 1.890625 0 Z M 1.890625 -9.09375 "/></g></g></g><g fill="#3a506b" fill-opacity="1"><g transform="translate(149.896452, 289.772911)"><g><path d="M 8.5625 -1.359375 L 8.5625 0 L 1.890625 0 L 1.890625 -9.09375 L 3.28125 -9.09375 L 3.28125 -1.359375 Z M 8.5625 -1.359375 "/></g></g></g><g fill="#3a506b" fill-opacity="1"><g transform="translate(159.851403, 289.772911)"><g><path d="M 11.28125 -4.546875 C 11.28125 -3.890625 11.15625 -3.273438 10.90625 -2.703125 C 10.664062 -2.140625 10.316406 -1.644531 9.859375 -1.21875 C 9.410156 -0.789062 8.878906 -0.457031 8.265625 -0.21875 C 7.648438 0.0078125 6.976562 0.125 6.25 0.125 C 5.507812 0.125 4.828125 0.0078125 4.203125 -0.21875 C 3.585938 -0.457031 3.054688 -0.789062 2.609375 -1.21875 C 2.171875 -1.644531 1.828125 -2.140625 1.578125 -2.703125 C 1.328125 -3.273438 1.203125 -3.890625 1.203125 -4.546875 C 1.203125 -5.203125 1.328125 -5.8125 1.578125 -6.375 C 1.828125 -6.945312 2.171875 -7.445312 2.609375 -7.875 C 3.054688 -8.300781 3.585938 -8.632812 4.203125 -8.875 C 4.828125 -9.113281 5.507812 -9.234375 6.25 -9.234375 C 6.976562 -9.234375 7.648438 -9.113281 8.265625 -8.875 C 8.878906 -8.632812 9.410156 -8.300781 9.859375 -7.875 C 10.316406 -7.445312 10.664062 -6.945312 10.90625 -6.375 C 11.15625 -5.8125 11.28125 -5.203125 11.28125 -4.546875 Z M 9.859375 -4.546875 C 9.859375 -5.179688 9.703125 -5.75 9.390625 -6.25 C 9.085938 -6.75 8.664062 -7.140625 8.125 -7.421875 C 7.582031 -7.710938 6.957031 -7.859375 6.25 -7.859375 C 5.53125 -7.859375 4.898438 -7.710938 4.359375 -7.421875 C 3.816406 -7.140625 3.394531 -6.75 3.09375 -6.25 C 2.789062 -5.75 2.640625 -5.179688 2.640625 -4.546875 C 2.640625 -3.910156 2.789062 -3.34375 3.09375 -2.84375 C 3.394531 -2.351562 3.816406 -1.960938 4.359375 -1.671875 C 4.898438 -1.378906 5.53125 -1.234375 6.25 -1.234375 C 6.957031 -1.234375 7.582031 -1.378906 8.125 -1.671875 C 8.664062 -1.960938 9.085938 -2.359375 9.390625 -2.859375 C 9.703125 -3.359375 9.859375 -3.921875 9.859375 -4.546875 Z M 9.859375 -4.546875 "/></g></g></g><g fill="#3a506b" fill-opacity="1"><g transform="translate(172.34058, 289.772911)"><g><path d="M 6.484375 -9.09375 C 7.003906 -9.09375 7.476562 -8.96875 7.90625 -8.71875 C 8.332031 -8.476562 8.675781 -8.144531 8.9375 -7.71875 C 9.195312 -7.300781 9.328125 -6.832031 9.328125 -6.3125 C 9.328125 -5.769531 9.191406 -5.28125 8.921875 -4.84375 C 8.648438 -4.40625 8.285156 -4.054688 7.828125 -3.796875 C 7.378906 -3.535156 6.882812 -3.40625 6.34375 -3.40625 L 3.28125 -3.40625 L 3.28125 0 L 1.890625 0 L 1.890625 -9.09375 Z M 6.265625 -4.765625 C 6.546875 -4.765625 6.804688 -4.832031 7.046875 -4.96875 C 7.296875 -5.113281 7.492188 -5.300781 7.640625 -5.53125 C 7.785156 -5.769531 7.859375 -6.03125 7.859375 -6.3125 C 7.859375 -6.570312 7.785156 -6.8125 7.640625 -7.03125 C 7.492188 -7.25 7.296875 -7.421875 7.046875 -7.546875 C 6.804688 -7.679688 6.546875 -7.75 6.265625 -7.75 L 3.28125 -7.75 L 3.28125 -4.765625 Z M 6.265625 -4.765625 "/></g></g></g><g fill="#3a506b" fill-opacity="1"><g transform="translate(182.906337, 289.772911)"><g><path d="M 3.265625 -9.09375 L 6.765625 -4.25 L 10.265625 -9.09375 L 11.625 -9.09375 L 11.625 0 L 10.21875 0 L 10.21875 -3.8125 C 10.21875 -4.363281 10.222656 -4.890625 10.234375 -5.390625 C 10.253906 -5.890625 10.296875 -6.390625 10.359375 -6.890625 L 7.15625 -2.609375 L 6.3125 -2.609375 L 3.140625 -6.875 C 3.203125 -6.382812 3.238281 -5.890625 3.25 -5.390625 C 3.269531 -4.890625 3.28125 -4.363281 3.28125 -3.8125 L 3.28125 0 L 1.890625 0 L 1.890625 -9.09375 Z M 3.265625 -9.09375 "/></g></g></g><g fill="#3a506b" fill-opacity="1"><g transform="translate(196.409197, 289.772911)"><g><path d="M 1.890625 -9.09375 L 8.625 -9.09375 L 8.625 -7.75 L 3.28125 -7.75 L 3.28125 -5.34375 L 7.921875 -5.34375 L 7.921875 -3.984375 L 3.28125 -3.984375 L 3.28125 -1.359375 L 8.625 -1.359375 L 8.625 0 L 1.890625 0 Z M 1.890625 -9.09375 "/></g></g></g><g fill="#3a506b" fill-opacity="1"><g transform="translate(206.637068, 289.772911)"><g><path d="M 9.40625 -9.09375 L 10.8125 -9.09375 L 10.8125 0 L 9.453125 0 L 3.0625 -7.078125 C 3.113281 -6.515625 3.160156 -5.960938 3.203125 -5.421875 C 3.253906 -4.878906 3.28125 -4.332031 3.28125 -3.78125 L 3.28125 0 L 1.890625 0 L 1.890625 -9.09375 L 3.21875 -9.09375 L 9.625 -1.859375 C 9.570312 -2.285156 9.523438 -2.742188 9.484375 -3.234375 C 9.453125 -3.722656 9.429688 -4.210938 9.421875 -4.703125 C 9.410156 -5.203125 9.40625 -5.671875 9.40625 -6.109375 Z M 9.40625 -9.09375 "/></g></g></g><g fill="#3a506b" fill-opacity="1"><g transform="translate(219.334172, 289.772911)"><g><path d="M 3.984375 0 L 3.984375 -7.75 L 0.921875 -7.75 L 0.921875 -9.09375 L 8.53125 -9.09375 L 8.53125 -7.75 L 5.390625 -7.75 L 5.390625 0 Z M 3.984375 0 "/></g></g></g><g fill="#3a506b" fill-opacity="1"><g transform="translate(228.782277, 289.772911)"><g/></g></g><g fill="#3a506b" fill-opacity="1"><g transform="translate(233.915707, 289.772911)"><g><path d="M 11.28125 -4.546875 C 11.28125 -3.890625 11.15625 -3.273438 10.90625 -2.703125 C 10.664062 -2.140625 10.316406 -1.644531 9.859375 -1.21875 C 9.410156 -0.789062 8.878906 -0.457031 8.265625 -0.21875 C 7.648438 0.0078125 6.976562 0.125 6.25 0.125 C 5.507812 0.125 4.828125 0.0078125 4.203125 -0.21875 C 3.585938 -0.457031 3.054688 -0.789062 2.609375 -1.21875 C 2.171875 -1.644531 1.828125 -2.140625 1.578125 -2.703125 C 1.328125 -3.273438 1.203125 -3.890625 1.203125 -4.546875 C 1.203125 -5.203125 1.328125 -5.8125 1.578125 -6.375 C 1.828125 -6.945312 2.171875 -7.445312 2.609375 -7.875 C 3.054688 -8.300781 3.585938 -8.632812 4.203125 -8.875 C 4.828125 -9.113281 5.507812 -9.234375 6.25 -9.234375 C 6.976562 -9.234375 7.648438 -9.113281 8.265625 -8.875 C 8.878906 -8.632812 9.410156 -8.300781 9.859375 -7.875 C 10.316406 -7.445312 10.664062 -6.945312 10.90625 -6.375 C 11.15625 -5.8125 11.28125 -5.203125 11.28125 -4.546875 Z M 9.859375 -4.546875 C 9.859375 -5.179688 9.703125 -5.75 9.390625 -6.25 C 9.085938 -6.75 8.664062 -7.140625 8.125 -7.421875 C 7.582031 -7.710938 6.957031 -7.859375 6.25 -7.859375 C 5.53125 -7.859375 4.898438 -7.710938 4.359375 -7.421875 C 3.816406 -7.140625 3.394531 -6.75 3.09375 -6.25 C 2.789062 -5.75 2.640625 -5.179688 2.640625 -4.546875 C 2.640625 -3.910156 2.789062 -3.34375 3.09375 -2.84375 C 3.394531 -2.351562 3.816406 -1.960938 4.359375 -1.671875 C 4.898438 -1.378906 5.53125 -1.234375 6.25 -1.234375 C 6.957031 -1.234375 7.582031 -1.378906 8.125 -1.671875 C 8.664062 -1.960938 9.085938 -2.359375 9.390625 -2.859375 C 9.703125 -3.359375 9.859375 -3.921875 9.859375 -4.546875 Z M 9.859375 -4.546875 "/></g></g></g><g fill="#3a506b" fill-opacity="1"><g transform="translate(246.404884, 289.772911)"><g><path d="M 9.40625 -9.09375 L 10.8125 -9.09375 L 10.8125 0 L 9.453125 0 L 3.0625 -7.078125 C 3.113281 -6.515625 3.160156 -5.960938 3.203125 -5.421875 C 3.253906 -4.878906 3.28125 -4.332031 3.28125 -3.78125 L 3.28125 0 L 1.890625 0 L 1.890625 -9.09375 L 3.21875 -9.09375 L 9.625 -1.859375 C 9.570312 -2.285156 9.523438 -2.742188 9.484375 -3.234375 C 9.453125 -3.722656 9.429688 -4.210938 9.421875 -4.703125 C 9.410156 -5.203125 9.40625 -5.671875 9.40625 -6.109375 Z M 9.40625 -9.09375 "/></g></g></g><g fill="#3a506b" fill-opacity="1"><g transform="translate(259.101988, 289.772911)"><g><path d="M 8.5625 -1.359375 L 8.5625 0 L 1.890625 0 L 1.890625 -9.09375 L 3.28125 -9.09375 L 3.28125 -1.359375 Z M 8.5625 -1.359375 "/></g></g></g><g fill="#3a506b" fill-opacity="1"><g transform="translate(269.05694, 289.772911)"><g><path d="M 7.15625 0 L 1.796875 0 L 1.796875 -1.359375 L 3.765625 -1.359375 L 3.765625 -7.75 L 1.796875 -7.75 L 1.796875 -9.09375 L 7.15625 -9.09375 L 7.15625 -7.75 L 5.171875 -7.75 L 5.171875 -1.359375 L 7.15625 -1.359375 Z M 7.15625 0 "/></g></g></g><g fill="#3a506b" fill-opacity="1"><g transform="translate(278.011197, 289.772911)"><g><path d="M 9.40625 -9.09375 L 10.8125 -9.09375 L 10.8125 0 L 9.453125 0 L 3.0625 -7.078125 C 3.113281 -6.515625 3.160156 -5.960938 3.203125 -5.421875 C 3.253906 -4.878906 3.28125 -4.332031 3.28125 -3.78125 L 3.28125 0 L 1.890625 0 L 1.890625 -9.09375 L 3.21875 -9.09375 L 9.625 -1.859375 C 9.570312 -2.285156 9.523438 -2.742188 9.484375 -3.234375 C 9.453125 -3.722656 9.429688 -4.210938 9.421875 -4.703125 C 9.410156 -5.203125 9.40625 -5.671875 9.40625 -6.109375 Z M 9.40625 -9.09375 "/></g></g></g><g fill="#3a506b" fill-opacity="1"><g transform="translate(290.708302, 289.772911)"><g><path d="M 1.890625 -9.09375 L 8.625 -9.09375 L 8.625 -7.75 L 3.28125 -7.75 L 3.28125 -5.34375 L 7.921875 -5.34375 L 7.921875 -3.984375 L 3.28125 -3.984375 L 3.28125 -1.359375 L 8.625 -1.359375 L 8.625 0 L 1.890625 0 Z M 1.890625 -9.09375 "/></g></g></g></svg>