<svg xmlns="http://www.w3.org/2000/svg" xmlns:xlink="http://www.w3.org/1999/xlink" width="500" zoomAndPan="magnify" viewBox="0 0 375 374.999991" height="500" preserveAspectRatio="xMidYMid meet" version="1.0"><defs><g/></defs><g fill="#000000" fill-opacity="1"><g transform="translate(46.875001, 202.499987)"><g><path d="M 31.0625 -3.953125 C 30.375 -3.296875 29.429688 -2.628906 28.234375 -1.953125 C 27.035156 -1.285156 25.664062 -0.722656 24.125 -0.265625 C 22.59375 0.179688 20.957031 0.40625 19.21875 0.40625 C 17.050781 0.40625 15.035156 0.0546875 13.171875 -0.640625 C 11.316406 -1.335938 9.6875 -2.332031 8.28125 -3.625 C 6.882812 -4.914062 5.796875 -6.476562 5.015625 -8.3125 C 4.234375 -10.144531 3.84375 -12.1875 3.84375 -14.4375 C 3.84375 -16.550781 4.253906 -18.5 5.078125 -20.28125 C 5.898438 -22.070312 7.03125 -23.628906 8.46875 -24.953125 C 9.914062 -26.273438 11.570312 -27.300781 13.4375 -28.03125 C 15.3125 -28.757812 17.296875 -29.125 19.390625 -29.125 C 21.117188 -29.125 22.757812 -28.878906 24.3125 -28.390625 C 25.863281 -27.910156 27.25 -27.300781 28.46875 -26.5625 C 29.695312 -25.820312 30.6875 -25.039062 31.4375 -24.21875 L 28.625 -20.75 C 27.332031 -21.90625 25.910156 -22.851562 24.359375 -23.59375 C 22.804688 -24.332031 21.066406 -24.703125 19.140625 -24.703125 C 17.796875 -24.703125 16.472656 -24.46875 15.171875 -24 C 13.878906 -23.539062 12.722656 -22.863281 11.703125 -21.96875 C 10.691406 -21.070312 9.882812 -19.988281 9.28125 -18.71875 C 8.675781 -17.457031 8.375 -16.03125 8.375 -14.4375 C 8.375 -12.125 8.910156 -10.191406 9.984375 -8.640625 C 11.054688 -7.085938 12.453125 -5.925781 14.171875 -5.15625 C 15.890625 -4.382812 17.738281 -4 19.71875 -4 C 21.125 -4 22.390625 -4.179688 23.515625 -4.546875 C 24.640625 -4.921875 25.648438 -5.390625 26.546875 -5.953125 C 27.441406 -6.523438 28.21875 -7.082031 28.875 -7.625 Z M 31.0625 -3.953125 "/></g></g></g><g fill="#000000" fill-opacity="1"><g transform="translate(81.845031, 202.499987)"><g><path d="M 29.5 -10.84375 C 29.5 -8.644531 28.941406 -6.695312 27.828125 -5 C 26.710938 -3.3125 25.191406 -1.988281 23.265625 -1.03125 C 21.335938 -0.0703125 19.125 0.40625 16.625 0.40625 C 14.125 0.40625 11.898438 -0.0703125 9.953125 -1.03125 C 8.015625 -1.988281 6.488281 -3.3125 5.375 -5 C 4.269531 -6.695312 3.71875 -8.644531 3.71875 -10.84375 C 3.71875 -13.050781 4.269531 -15 5.375 -16.6875 C 6.488281 -18.375 8.015625 -19.695312 9.953125 -20.65625 C 11.898438 -21.625 14.125 -22.109375 16.625 -22.109375 C 19.125 -22.109375 21.335938 -21.625 23.265625 -20.65625 C 25.191406 -19.695312 26.710938 -18.375 27.828125 -16.6875 C 28.941406 -15 29.5 -13.050781 29.5 -10.84375 Z M 25.15625 -10.84375 C 25.1875 -12.300781 24.820312 -13.585938 24.0625 -14.703125 C 23.3125 -15.816406 22.289062 -16.679688 21 -17.296875 C 19.707031 -17.921875 18.25 -18.234375 16.625 -18.234375 C 15.03125 -18.234375 13.570312 -17.921875 12.25 -17.296875 C 10.925781 -16.679688 9.882812 -15.816406 9.125 -14.703125 C 8.375 -13.585938 8.015625 -12.300781 8.046875 -10.84375 C 8.015625 -9.414062 8.375 -8.144531 9.125 -7.03125 C 9.882812 -5.914062 10.925781 -5.039062 12.25 -4.40625 C 13.570312 -3.78125 15.03125 -3.46875 16.625 -3.46875 C 18.25 -3.46875 19.710938 -3.78125 21.015625 -4.40625 C 22.316406 -5.039062 23.335938 -5.914062 24.078125 -7.03125 C 24.828125 -8.144531 25.1875 -9.414062 25.15625 -10.84375 Z M 25.15625 -10.84375 "/></g></g></g><g fill="#000000" fill-opacity="1"><g transform="translate(115.041821, 202.499987)"><g><path d="M 28.34375 -30.53125 L 28.34375 0 L 24.09375 0 L 24.09375 -3.46875 C 23.59375 -2.800781 22.894531 -2.171875 22 -1.578125 C 21.113281 -0.992188 20.09375 -0.515625 18.9375 -0.140625 C 17.78125 0.222656 16.554688 0.40625 15.265625 0.40625 C 12.921875 0.40625 10.867188 -0.0703125 9.109375 -1.03125 C 7.347656 -1.988281 5.972656 -3.320312 4.984375 -5.03125 C 3.992188 -6.738281 3.5 -8.675781 3.5 -10.84375 C 3.5 -13.050781 4.007812 -15 5.03125 -16.6875 C 6.050781 -18.375 7.453125 -19.695312 9.234375 -20.65625 C 11.023438 -21.625 13.0625 -22.109375 15.34375 -22.109375 C 17.269531 -22.109375 19.003906 -21.769531 20.546875 -21.09375 C 22.085938 -20.425781 23.269531 -19.640625 24.09375 -18.734375 L 24.09375 -30.53125 Z M 16.046875 -3.375 C 17.671875 -3.375 19.097656 -3.703125 20.328125 -4.359375 C 21.566406 -5.023438 22.53125 -5.914062 23.21875 -7.03125 C 23.90625 -8.144531 24.25 -9.414062 24.25 -10.84375 C 24.25 -12.25 23.90625 -13.515625 23.21875 -14.640625 C 22.53125 -15.765625 21.566406 -16.648438 20.328125 -17.296875 C 19.097656 -17.953125 17.671875 -18.28125 16.046875 -18.28125 C 14.453125 -18.28125 13.035156 -17.953125 11.796875 -17.296875 C 10.554688 -16.648438 9.585938 -15.765625 8.890625 -14.640625 C 8.191406 -13.515625 7.84375 -12.25 7.84375 -10.84375 C 7.84375 -9.414062 8.191406 -8.144531 8.890625 -7.03125 C 9.585938 -5.914062 10.554688 -5.023438 11.796875 -4.359375 C 13.035156 -3.703125 14.453125 -3.375 16.046875 -3.375 Z M 16.046875 -3.375 "/></g></g></g><g fill="#000000" fill-opacity="1"><g transform="translate(148.815943, 202.499987)"><g><path d="M 27.09375 -2.84375 L 27.0625 -2.84375 C 26.34375 -2.289062 25.441406 -1.757812 24.359375 -1.25 C 23.273438 -0.75 22.078125 -0.347656 20.765625 -0.046875 C 19.460938 0.253906 18.132812 0.40625 16.78125 0.40625 C 14.144531 0.40625 11.828125 -0.0664062 9.828125 -1.015625 C 7.835938 -1.960938 6.285156 -3.265625 5.171875 -4.921875 C 4.054688 -6.585938 3.5 -8.476562 3.5 -10.59375 C 3.5 -13.019531 4.085938 -15.09375 5.265625 -16.8125 C 6.453125 -18.53125 8.019531 -19.847656 9.96875 -20.765625 C 11.925781 -21.691406 14.078125 -22.15625 16.421875 -22.15625 C 18.566406 -22.15625 20.519531 -21.707031 22.28125 -20.8125 C 24.039062 -19.914062 25.441406 -18.679688 26.484375 -17.109375 C 27.523438 -15.546875 28.046875 -13.71875 28.046875 -11.625 L 28.015625 -9.5625 L 7.84375 -9.5625 C 8.164062 -7.695312 9.191406 -6.21875 10.921875 -5.125 C 12.660156 -4.039062 14.820312 -3.5 17.40625 -3.5 C 19.332031 -3.5 20.90625 -3.785156 22.125 -4.359375 C 23.351562 -4.941406 24.351562 -5.492188 25.125 -6.015625 Z M 16.421875 -18.234375 C 14.296875 -18.234375 12.457031 -17.832031 10.90625 -17.03125 C 9.351562 -16.238281 8.359375 -14.878906 7.921875 -12.953125 L 23.71875 -12.953125 L 23.71875 -13.484375 C 23.601562 -14.421875 23.1875 -15.242188 22.46875 -15.953125 C 21.757812 -16.671875 20.867188 -17.226562 19.796875 -17.625 C 18.722656 -18.03125 17.597656 -18.234375 16.421875 -18.234375 Z M 16.421875 -18.234375 "/></g></g></g><g fill="#000000" fill-opacity="1"><g transform="translate(180.940537, 202.499987)"><g><path d="M 7.171875 -21.65625 L 15.21875 -5.078125 L 23.515625 -21.65625 L 28.09375 -21.65625 L 16.78125 0 L 13.28125 0 L 2.34375 -21.65625 Z M 7.171875 -21.65625 "/></g></g></g><g fill="#000000" fill-opacity="1"><g transform="translate(211.415602, 202.499987)"><g><path d="M 27.09375 -2.84375 L 27.0625 -2.84375 C 26.34375 -2.289062 25.441406 -1.757812 24.359375 -1.25 C 23.273438 -0.75 22.078125 -0.347656 20.765625 -0.046875 C 19.460938 0.253906 18.132812 0.40625 16.78125 0.40625 C 14.144531 0.40625 11.828125 -0.0664062 9.828125 -1.015625 C 7.835938 -1.960938 6.285156 -3.265625 5.171875 -4.921875 C 4.054688 -6.585938 3.5 -8.476562 3.5 -10.59375 C 3.5 -13.019531 4.085938 -15.09375 5.265625 -16.8125 C 6.453125 -18.53125 8.019531 -19.847656 9.96875 -20.765625 C 11.925781 -21.691406 14.078125 -22.15625 16.421875 -22.15625 C 18.566406 -22.15625 20.519531 -21.707031 22.28125 -20.8125 C 24.039062 -19.914062 25.441406 -18.679688 26.484375 -17.109375 C 27.523438 -15.546875 28.046875 -13.71875 28.046875 -11.625 L 28.015625 -9.5625 L 7.84375 -9.5625 C 8.164062 -7.695312 9.191406 -6.21875 10.921875 -5.125 C 12.660156 -4.039062 14.820312 -3.5 17.40625 -3.5 C 19.332031 -3.5 20.90625 -3.785156 22.125 -4.359375 C 23.351562 -4.941406 24.351562 -5.492188 25.125 -6.015625 Z M 16.421875 -18.234375 C 14.296875 -18.234375 12.457031 -17.832031 10.90625 -17.03125 C 9.351562 -16.238281 8.359375 -14.878906 7.921875 -12.953125 L 23.71875 -12.953125 L 23.71875 -13.484375 C 23.601562 -14.421875 23.1875 -15.242188 22.46875 -15.953125 C 21.757812 -16.671875 20.867188 -17.226562 19.796875 -17.625 C 18.722656 -18.03125 17.597656 -18.234375 16.421875 -18.234375 Z M 16.421875 -18.234375 "/></g></g></g><g fill="#000000" fill-opacity="1"><g transform="translate(243.540196, 202.499987)"><g><path d="M 21.28125 -16.75 C 20.8125 -17 20.238281 -17.203125 19.5625 -17.359375 C 18.894531 -17.523438 18.242188 -17.609375 17.609375 -17.609375 C 16.316406 -17.609375 15.140625 -17.3125 14.078125 -16.71875 C 13.023438 -16.132812 12.195312 -15.359375 11.59375 -14.390625 C 10.988281 -13.429688 10.6875 -12.390625 10.6875 -11.265625 L 10.6875 0 L 6.390625 0 L 6.390625 -21.65625 L 10.6875 -21.65625 L 10.6875 -17.15625 C 11.507812 -18.613281 12.617188 -19.800781 14.015625 -20.71875 C 15.421875 -21.644531 16.894531 -22.109375 18.4375 -22.109375 C 19.207031 -22.109375 19.957031 -22.03125 20.6875 -21.875 C 21.414062 -21.726562 21.988281 -21.519531 22.40625 -21.25 Z M 21.28125 -16.75 "/></g></g></g><g fill="#000000" fill-opacity="1"><g transform="translate(268.901721, 202.499987)"><g><path d="M 21.125 -15.84375 C 20.132812 -16.632812 18.953125 -17.289062 17.578125 -17.8125 C 16.203125 -18.34375 14.90625 -18.609375 13.6875 -18.609375 C 12.925781 -18.609375 12.125 -18.535156 11.28125 -18.390625 C 10.445312 -18.253906 9.734375 -18 9.140625 -17.625 C 8.546875 -17.257812 8.25 -16.71875 8.25 -16 C 8.28125 -15.375 8.578125 -14.851562 9.140625 -14.4375 C 9.703125 -14.019531 10.445312 -13.679688 11.375 -13.421875 C 12.3125 -13.160156 13.347656 -12.921875 14.484375 -12.703125 C 15.578125 -12.515625 16.664062 -12.269531 17.75 -11.96875 C 18.84375 -11.664062 19.820312 -11.285156 20.6875 -10.828125 C 21.550781 -10.367188 22.242188 -9.773438 22.765625 -9.046875 C 23.285156 -8.328125 23.546875 -7.429688 23.546875 -6.359375 C 23.546875 -4.898438 23.113281 -3.664062 22.25 -2.65625 C 21.382812 -1.65625 20.238281 -0.894531 18.8125 -0.375 C 17.382812 0.144531 15.832031 0.40625 14.15625 0.40625 C 12.03125 0.40625 10.039062 0.113281 8.1875 -0.46875 C 6.332031 -1.0625 4.769531 -2.101562 3.5 -3.59375 L 6.390625 -6.140625 C 7.328125 -5.210938 8.425781 -4.476562 9.6875 -3.9375 C 10.957031 -3.40625 12.40625 -3.140625 14.03125 -3.140625 C 14.769531 -3.140625 15.554688 -3.210938 16.390625 -3.359375 C 17.234375 -3.515625 17.941406 -3.789062 18.515625 -4.1875 C 19.097656 -4.582031 19.390625 -5.140625 19.390625 -5.859375 C 19.390625 -6.492188 19.097656 -7.003906 18.515625 -7.390625 C 17.941406 -7.773438 17.171875 -8.082031 16.203125 -8.3125 C 15.242188 -8.539062 14.21875 -8.753906 13.125 -8.953125 C 11.519531 -9.285156 10.023438 -9.675781 8.640625 -10.125 C 7.253906 -10.582031 6.132812 -11.25 5.28125 -12.125 C 4.425781 -13.007812 4 -14.25 4 -15.84375 C 4 -17.132812 4.429688 -18.242188 5.296875 -19.171875 C 6.160156 -20.109375 7.316406 -20.832031 8.765625 -21.34375 C 10.210938 -21.851562 11.816406 -22.109375 13.578125 -22.109375 C 14.671875 -22.109375 15.828125 -21.988281 17.046875 -21.75 C 18.273438 -21.519531 19.453125 -21.148438 20.578125 -20.640625 C 21.710938 -20.128906 22.664062 -19.460938 23.4375 -18.640625 Z M 21.125 -15.84375 "/></g></g></g><g fill="#000000" fill-opacity="1"><g transform="translate(295.99524, 202.499987)"><g><path d="M 27.09375 -2.84375 L 27.0625 -2.84375 C 26.34375 -2.289062 25.441406 -1.757812 24.359375 -1.25 C 23.273438 -0.75 22.078125 -0.347656 20.765625 -0.046875 C 19.460938 0.253906 18.132812 0.40625 16.78125 0.40625 C 14.144531 0.40625 11.828125 -0.0664062 9.828125 -1.015625 C 7.835938 -1.960938 6.285156 -3.265625 5.171875 -4.921875 C 4.054688 -6.585938 3.5 -8.476562 3.5 -10.59375 C 3.5 -13.019531 4.085938 -15.09375 5.265625 -16.8125 C 6.453125 -18.53125 8.019531 -19.847656 9.96875 -20.765625 C 11.925781 -21.691406 14.078125 -22.15625 16.421875 -22.15625 C 18.566406 -22.15625 20.519531 -21.707031 22.28125 -20.8125 C 24.039062 -19.914062 25.441406 -18.679688 26.484375 -17.109375 C 27.523438 -15.546875 28.046875 -13.71875 28.046875 -11.625 L 28.015625 -9.5625 L 7.84375 -9.5625 C 8.164062 -7.695312 9.191406 -6.21875 10.921875 -5.125 C 12.660156 -4.039062 14.820312 -3.5 17.40625 -3.5 C 19.332031 -3.5 20.90625 -3.785156 22.125 -4.359375 C 23.351562 -4.941406 24.351562 -5.492188 25.125 -6.015625 Z M 16.421875 -18.234375 C 14.296875 -18.234375 12.457031 -17.832031 10.90625 -17.03125 C 9.351562 -16.238281 8.359375 -14.878906 7.921875 -12.953125 L 23.71875 -12.953125 L 23.71875 -13.484375 C 23.601562 -14.421875 23.1875 -15.242188 22.46875 -15.953125 C 21.757812 -16.671875 20.867188 -17.226562 19.796875 -17.625 C 18.722656 -18.03125 17.597656 -18.234375 16.421875 -18.234375 Z M 16.421875 -18.234375 "/></g></g></g></svg>