<svg xmlns="http://www.w3.org/2000/svg" xmlns:xlink="http://www.w3.org/1999/xlink" width="500" zoomAndPan="magnify" viewBox="0 0 375 374.999991" height="500" preserveAspectRatio="xMidYMid meet" version="1.0"><defs><clipPath id="7db8bf7a28"><path d="M 0 0 L 373.5 0 L 373.5 375 L 0 375 Z M 0 0 " clip-rule="nonzero"/></clipPath></defs><g clip-path="url(#7db8bf7a28)"><path fill="#0b132b" d="M 373.363281 173.082031 C 373.371094 172.945312 373.34375 172.8125 373.300781 172.691406 C 373.300781 172.683594 373.304688 172.675781 373.300781 172.667969 L 336.078125 74.875 C 336.074219 74.859375 336.058594 74.855469 336.054688 74.839844 C 335.992188 74.695312 335.90625 74.558594 335.777344 74.457031 L 253.921875 9.3125 C 253.792969 9.210938 253.636719 9.136719 253.46875 9.105469 C 253.453125 9.105469 253.441406 9.101562 253.429688 9.101562 L 186.617188 0.0117188 C 186.484375 -0.0078125 186.347656 0.00390625 186.21875 0.0390625 L 154.375 9.09375 L 153.46875 9.09375 C 153.285156 9.09375 153.113281 9.144531 152.964844 9.234375 C 152.960938 9.234375 152.960938 9.234375 152.960938 9.234375 L 152.148438 9.722656 L 73.773438 32.011719 C 73.746094 32.019531 73.730469 32.039062 73.707031 32.046875 C 73.601562 32.085938 73.507812 32.140625 73.417969 32.214844 C 73.382812 32.246094 73.347656 32.273438 73.316406 32.304688 C 73.300781 32.324219 73.277344 32.332031 73.261719 32.355469 L 4.625 121.496094 C 4.605469 121.527344 4.601562 121.558594 4.582031 121.585938 C 4.558594 121.625 4.527344 121.660156 4.511719 121.703125 C 4.5 121.730469 4.496094 121.761719 4.484375 121.789062 C 4.46875 121.839844 4.457031 121.894531 4.449219 121.949219 C 4.445312 121.980469 4.429688 122.007812 4.425781 122.042969 L 0.105469 200.441406 C 0.101562 200.511719 0.105469 200.582031 0.113281 200.648438 L 6.441406 240.300781 C 6.449219 240.351562 6.476562 240.394531 6.492188 240.445312 C 6.503906 240.480469 6.5 240.515625 6.515625 240.546875 C 6.519531 240.554688 6.527344 240.558594 6.53125 240.570312 C 6.535156 240.578125 6.535156 240.589844 6.539062 240.601562 L 38.496094 301.496094 C 38.550781 301.601562 38.625 301.695312 38.714844 301.777344 L 76.195312 334.925781 C 76.253906 334.996094 76.320312 335.054688 76.394531 335.101562 L 119.734375 364.328125 C 119.855469 364.40625 119.988281 364.457031 120.132812 364.480469 L 188.128906 375.0625 L 188.136719 375.0625 C 188.136719 375.0625 188.140625 375.0625 188.140625 375.0625 C 188.144531 375.0625 188.144531 375.066406 188.152344 375.066406 C 188.203125 375.074219 188.25 375.078125 188.300781 375.078125 C 188.300781 375.078125 188.300781 375.078125 188.304688 375.078125 C 188.371094 375.078125 188.4375 375.070312 188.503906 375.054688 C 188.503906 375.054688 188.507812 375.054688 188.507812 375.054688 C 188.511719 375.054688 188.511719 375.054688 188.511719 375.054688 C 188.515625 375.054688 188.515625 375.054688 188.515625 375.050781 C 188.515625 375.050781 188.519531 375.050781 188.519531 375.050781 C 188.523438 375.050781 188.53125 375.050781 188.535156 375.046875 C 188.535156 375.046875 188.535156 375.046875 188.539062 375.046875 C 188.539062 375.050781 188.542969 375.042969 188.542969 375.042969 L 188.546875 375.042969 C 188.546875 375.042969 188.550781 375.042969 188.550781 375.042969 C 188.550781 375.042969 188.550781 375.039062 188.554688 375.039062 C 188.554688 375.039062 188.554688 375.039062 188.558594 375.039062 C 188.558594 375.042969 188.558594 375.039062 188.5625 375.039062 C 188.566406 375.035156 188.566406 375.035156 188.570312 375.035156 L 299.679688 342.546875 C 299.722656 342.535156 299.746094 342.496094 299.78125 342.476562 C 299.890625 342.429688 299.972656 342.367188 300.058594 342.285156 C 300.097656 342.25 300.152344 342.242188 300.183594 342.199219 L 367.78125 253.007812 C 367.886719 252.867188 367.933594 252.703125 367.957031 252.535156 C 367.957031 252.515625 367.976562 252.503906 367.976562 252.484375 Z M 366.078125 251.640625 L 336.839844 259.035156 L 371.019531 178.730469 Z M 247.449219 240.265625 L 139.722656 202.339844 L 220.96875 143.800781 Z M 220.972656 140.644531 L 139.953125 87.621094 L 245.292969 57.46875 Z M 219.816406 142.222656 L 138.609375 200.730469 L 138.609375 89.078125 Z M 136.652344 201.070312 L 44.492188 155.8125 L 136.652344 89.183594 Z M 156.609375 309.570312 L 68.757812 260.316406 L 136.972656 204.449219 Z M 138.902344 204.128906 L 246.855469 242.132812 L 158.628906 309.703125 Z M 248.039062 243.691406 L 253.730469 324.492188 L 160.390625 310.816406 Z M 249.292969 239.585938 L 222.863281 143.300781 L 312.742188 152.289062 Z M 313.996094 153.894531 L 333.929688 259.199219 L 250.5625 241.171875 Z M 335.527344 257.117188 L 315.820312 153.007812 L 371.082031 173.578125 Z M 314.136719 149.226562 L 248.996094 57.53125 L 333.953125 75.964844 Z M 312.492188 150.296875 L 222.8125 141.328125 L 247.105469 58.25 Z M 138.914062 85.882812 L 154.171875 11.511719 L 244.027344 55.796875 Z M 136.894531 85.988281 L 67.964844 62.929688 L 152.058594 12.070312 Z M 135.511719 87.589844 L 44.195312 153.609375 L 66.34375 64.453125 Z M 42.042969 154.144531 L 6.824219 122.070312 L 63.867188 66.300781 Z M 64.773438 62.675781 L 14.664062 111.667969 L 71.753906 37.527344 Z M 41.429688 156.234375 L 8.304688 235.453125 L 6.417969 124.34375 Z M 42.332031 159.144531 L 65.667969 258.972656 L 8.714844 239.554688 Z M 44.019531 157.761719 L 135.832031 202.847656 L 67.621094 258.714844 Z M 155.414062 311.144531 L 77.75 333.035156 L 68.257812 262.28125 Z M 157.433594 312.613281 L 186.375 372.367188 L 80.144531 334.390625 Z M 188.667969 372.609375 L 159.640625 312.683594 L 252.273438 326.257812 Z M 255.636719 323.691406 L 249.957031 243.042969 L 332.96875 260.992188 Z M 332.636719 263.777344 L 298.882812 340.375 L 256.761719 325.300781 Z M 335.871094 261.300781 L 364.539062 254.050781 L 303.671875 334.363281 Z M 315.714844 150.878906 L 335.324219 78.390625 L 370.703125 171.34375 Z M 254.027344 11.902344 L 331.273438 73.378906 L 247.828125 55.273438 Z M 186.554688 1.976562 L 238.847656 9.09375 L 161.53125 9.09375 Z M 252.171875 11.050781 L 245.953125 54.5625 L 157.667969 11.050781 Z M 67.25 61.074219 L 74.835938 33.742188 L 145.796875 13.566406 Z M 2.058594 200.445312 L 4.882812 149.253906 L 6.191406 226.332031 Z M 40.144531 300.425781 L 14.210938 251.007812 L 70.632812 327.402344 Z M 10.054688 242.082031 L 66.136719 261.199219 L 75.453125 330.632812 Z M 83.910156 337.816406 L 178.242188 371.539062 L 120.644531 362.578125 Z M 254.949219 326.734375 L 296.242188 341.515625 L 193.410156 371.582031 Z M 254.949219 326.734375 " fill-opacity="1" fill-rule="nonzero"/></g></svg>