<svg xmlns="http://www.w3.org/2000/svg" xmlns:xlink="http://www.w3.org/1999/xlink" width="500" zoomAndPan="magnify" viewBox="0 0 375 374.999991" height="500" preserveAspectRatio="xMidYMid meet" version="1.0"><defs><g/><clipPath id="10f397c6cd"><path d="M 117.226562 54.507812 L 257.476562 54.507812 L 257.476562 195.507812 L 117.226562 195.507812 Z M 117.226562 54.507812 " clip-rule="nonzero"/></clipPath></defs><path fill="#0b132b" d="M 238.976562 305.878906 C 197.285156 315 156.84375 316.65625 124.820312 324.808594 C 92.167969 333.117188 70.015625 346.433594 62.484375 362.160156 C 59.160156 369.699219 57.164062 375.347656 52.464844 373.808594 C 45.910156 371.65625 33.246094 353.347656 22.726562 323.496094 C 2.183594 273.125 8.039062 205.191406 40.699219 140.105469 C 73.074219 75.578125 123.894531 29.035156 170.773438 11.511719 C 198.121094 0.214844 230.984375 1.609375 269.726562 28.109375 C 295.734375 45.902344 320.445312 72.71875 338.808594 103.527344 C 365.082031 154.246094 361.183594 206.53125 339.730469 242.21875 C 317.609375 279.003906 280.960938 296.695312 238.976562 305.878906 Z M 238.976562 305.878906 " fill-opacity="1" fill-rule="nonzero"/><g clip-path="url(#10f397c6cd)"><path fill="#ffffff" d="M 257.421875 119.585938 C 257.425781 119.535156 257.417969 119.484375 257.402344 119.4375 C 257.398438 119.433594 257.402344 119.433594 257.398438 119.429688 L 243.421875 82.660156 C 243.421875 82.652344 243.417969 82.652344 243.414062 82.648438 C 243.390625 82.59375 243.359375 82.539062 243.308594 82.503906 L 212.574219 58.007812 C 212.523438 57.96875 212.464844 57.941406 212.402344 57.929688 C 212.398438 57.929688 212.394531 57.929688 212.386719 57.929688 L 187.300781 54.511719 C 187.25 54.503906 187.199219 54.507812 187.148438 54.519531 L 175.191406 57.925781 L 174.851562 57.925781 C 174.785156 57.925781 174.71875 57.945312 174.664062 57.976562 L 174.359375 58.160156 L 144.925781 66.542969 C 144.917969 66.546875 144.910156 66.554688 144.902344 66.554688 C 144.863281 66.570312 144.828125 66.589844 144.792969 66.621094 C 144.78125 66.628906 144.769531 66.640625 144.757812 66.652344 C 144.75 66.660156 144.742188 66.664062 144.734375 66.671875 L 118.960938 100.191406 C 118.953125 100.199219 118.953125 100.210938 118.945312 100.222656 C 118.9375 100.238281 118.925781 100.25 118.917969 100.265625 C 118.914062 100.277344 118.914062 100.289062 118.910156 100.296875 C 118.902344 100.320312 118.898438 100.339844 118.894531 100.359375 C 118.894531 100.371094 118.886719 100.382812 118.886719 100.394531 L 117.265625 129.871094 C 117.261719 129.898438 117.265625 129.925781 117.269531 129.949219 L 119.644531 144.859375 C 119.648438 144.878906 119.65625 144.894531 119.664062 144.914062 C 119.667969 144.925781 119.667969 144.941406 119.671875 144.953125 C 119.671875 144.953125 119.675781 144.957031 119.675781 144.960938 C 119.679688 144.964844 119.679688 144.96875 119.679688 144.972656 L 131.679688 167.867188 C 131.699219 167.910156 131.730469 167.945312 131.761719 167.972656 L 145.835938 180.4375 C 145.859375 180.464844 145.882812 180.488281 145.910156 180.503906 L 162.1875 191.492188 C 162.230469 191.523438 162.28125 191.542969 162.335938 191.550781 L 187.867188 195.527344 L 187.871094 195.53125 C 187.875 195.53125 187.875 195.53125 187.875 195.53125 C 187.894531 195.535156 187.914062 195.535156 187.933594 195.535156 C 187.957031 195.535156 187.984375 195.53125 188.007812 195.527344 C 188.007812 195.527344 188.007812 195.527344 188.011719 195.527344 C 188.011719 195.527344 188.011719 195.527344 188.011719 195.523438 C 188.011719 195.523438 188.015625 195.523438 188.015625 195.523438 C 188.015625 195.523438 188.019531 195.523438 188.019531 195.523438 C 188.023438 195.523438 188.023438 195.523438 188.023438 195.523438 C 188.023438 195.523438 188.027344 195.523438 188.027344 195.523438 C 188.027344 195.523438 188.027344 195.519531 188.03125 195.519531 C 188.03125 195.519531 188.03125 195.519531 188.035156 195.519531 L 229.753906 183.304688 C 229.769531 183.300781 229.78125 183.285156 229.792969 183.277344 C 229.835938 183.261719 229.867188 183.238281 229.898438 183.207031 C 229.910156 183.191406 229.933594 183.1875 229.945312 183.171875 L 255.328125 149.636719 C 255.367188 149.582031 255.386719 149.523438 255.394531 149.460938 C 255.394531 149.453125 255.402344 149.449219 255.402344 149.441406 Z M 254.6875 149.125 L 243.710938 151.902344 L 256.542969 121.710938 Z M 210.140625 144.84375 L 169.691406 130.585938 L 200.199219 108.574219 Z M 200.203125 107.386719 L 169.777344 87.453125 L 209.332031 76.113281 Z M 199.765625 107.984375 L 169.273438 129.980469 L 169.273438 88 Z M 168.539062 130.109375 L 133.929688 113.09375 L 168.539062 88.039062 Z M 176.03125 170.90625 L 143.042969 152.386719 L 168.65625 131.378906 Z M 169.382812 131.257812 L 209.921875 145.546875 L 176.789062 170.953125 Z M 210.363281 146.136719 L 212.5 176.515625 L 177.453125 171.371094 Z M 210.835938 144.589844 L 200.910156 108.386719 L 234.660156 111.765625 Z M 235.132812 112.371094 L 242.617188 151.964844 L 211.3125 145.1875 Z M 243.214844 151.183594 L 235.816406 112.039062 L 256.566406 119.769531 Z M 235.183594 110.617188 L 210.722656 76.136719 L 242.625 83.070312 Z M 234.566406 111.015625 L 200.890625 107.644531 L 210.015625 76.410156 Z M 169.386719 86.796875 L 175.117188 58.835938 L 208.859375 75.484375 Z M 168.628906 86.839844 L 142.746094 78.167969 L 174.324219 59.042969 Z M 168.109375 87.441406 L 133.820312 112.265625 L 142.136719 78.742188 Z M 133.011719 112.464844 L 119.789062 100.40625 L 141.207031 79.4375 Z M 141.546875 78.070312 L 122.730469 96.492188 L 144.167969 68.617188 Z M 132.78125 113.25 L 120.34375 143.039062 L 119.636719 101.261719 Z M 133.121094 114.34375 L 141.882812 151.878906 L 120.496094 144.578125 Z M 133.753906 113.824219 L 168.230469 130.777344 L 142.617188 151.78125 Z M 175.582031 171.496094 L 146.421875 179.726562 L 142.855469 153.125 Z M 176.339844 172.046875 L 187.207031 194.515625 L 147.320312 180.238281 Z M 188.070312 194.609375 L 177.171875 172.074219 L 211.953125 177.179688 Z M 213.21875 176.214844 L 211.085938 145.890625 L 242.253906 152.640625 Z M 242.132812 153.6875 L 229.457031 182.488281 L 213.640625 176.820312 Z M 243.34375 152.753906 L 254.109375 150.027344 L 231.253906 180.226562 Z M 235.777344 111.234375 L 243.140625 83.980469 L 256.425781 118.933594 Z M 212.613281 58.980469 L 241.617188 82.097656 L 210.285156 75.289062 Z M 187.277344 55.25 L 206.914062 57.925781 L 177.882812 57.925781 Z M 211.917969 58.660156 L 209.582031 75.023438 L 176.429688 58.660156 Z M 142.476562 77.46875 L 145.328125 67.195312 L 171.972656 59.605469 Z M 118 129.875 L 119.058594 110.625 L 119.550781 139.605469 Z M 132.300781 167.464844 L 122.5625 148.886719 L 143.746094 177.609375 Z M 121 145.527344 L 142.058594 152.71875 L 145.558594 178.824219 Z M 148.734375 181.523438 L 184.15625 194.203125 L 162.527344 190.835938 Z M 212.957031 177.359375 L 228.464844 182.914062 L 189.851562 194.21875 Z M 212.957031 177.359375 " fill-opacity="1" fill-rule="nonzero"/></g><g fill="#ffffff" fill-opacity="1"><g transform="translate(46.875001, 238.426348)"><g><path d="M 31.0625 -3.953125 C 30.375 -3.296875 29.429688 -2.628906 28.234375 -1.953125 C 27.035156 -1.285156 25.664062 -0.722656 24.125 -0.265625 C 22.59375 0.179688 20.957031 0.40625 19.21875 0.40625 C 17.050781 0.40625 15.035156 0.0546875 13.171875 -0.640625 C 11.316406 -1.335938 9.6875 -2.332031 8.28125 -3.625 C 6.882812 -4.914062 5.796875 -6.476562 5.015625 -8.3125 C 4.234375 -10.144531 3.84375 -12.1875 3.84375 -14.4375 C 3.84375 -16.550781 4.253906 -18.5 5.078125 -20.28125 C 5.898438 -22.070312 7.03125 -23.628906 8.46875 -24.953125 C 9.914062 -26.273438 11.570312 -27.300781 13.4375 -28.03125 C 15.3125 -28.757812 17.296875 -29.125 19.390625 -29.125 C 21.117188 -29.125 22.757812 -28.878906 24.3125 -28.390625 C 25.863281 -27.910156 27.25 -27.300781 28.46875 -26.5625 C 29.695312 -25.820312 30.6875 -25.039062 31.4375 -24.21875 L 28.625 -20.75 C 27.332031 -21.90625 25.910156 -22.851562 24.359375 -23.59375 C 22.804688 -24.332031 21.066406 -24.703125 19.140625 -24.703125 C 17.796875 -24.703125 16.472656 -24.46875 15.171875 -24 C 13.878906 -23.539062 12.722656 -22.863281 11.703125 -21.96875 C 10.691406 -21.070312 9.882812 -19.988281 9.28125 -18.71875 C 8.675781 -17.457031 8.375 -16.03125 8.375 -14.4375 C 8.375 -12.125 8.910156 -10.191406 9.984375 -8.640625 C 11.054688 -7.085938 12.453125 -5.925781 14.171875 -5.15625 C 15.890625 -4.382812 17.738281 -4 19.71875 -4 C 21.125 -4 22.390625 -4.179688 23.515625 -4.546875 C 24.640625 -4.921875 25.648438 -5.390625 26.546875 -5.953125 C 27.441406 -6.523438 28.21875 -7.082031 28.875 -7.625 Z M 31.0625 -3.953125 "/></g></g></g><g fill="#ffffff" fill-opacity="1"><g transform="translate(81.845031, 238.426348)"><g><path d="M 29.5 -10.84375 C 29.5 -8.644531 28.941406 -6.695312 27.828125 -5 C 26.710938 -3.3125 25.191406 -1.988281 23.265625 -1.03125 C 21.335938 -0.0703125 19.125 0.40625 16.625 0.40625 C 14.125 0.40625 11.898438 -0.0703125 9.953125 -1.03125 C 8.015625 -1.988281 6.488281 -3.3125 5.375 -5 C 4.269531 -6.695312 3.71875 -8.644531 3.71875 -10.84375 C 3.71875 -13.050781 4.269531 -15 5.375 -16.6875 C 6.488281 -18.375 8.015625 -19.695312 9.953125 -20.65625 C 11.898438 -21.625 14.125 -22.109375 16.625 -22.109375 C 19.125 -22.109375 21.335938 -21.625 23.265625 -20.65625 C 25.191406 -19.695312 26.710938 -18.375 27.828125 -16.6875 C 28.941406 -15 29.5 -13.050781 29.5 -10.84375 Z M 25.15625 -10.84375 C 25.1875 -12.300781 24.820312 -13.585938 24.0625 -14.703125 C 23.3125 -15.816406 22.289062 -16.679688 21 -17.296875 C 19.707031 -17.921875 18.25 -18.234375 16.625 -18.234375 C 15.03125 -18.234375 13.570312 -17.921875 12.25 -17.296875 C 10.925781 -16.679688 9.882812 -15.816406 9.125 -14.703125 C 8.375 -13.585938 8.015625 -12.300781 8.046875 -10.84375 C 8.015625 -9.414062 8.375 -8.144531 9.125 -7.03125 C 9.882812 -5.914062 10.925781 -5.039062 12.25 -4.40625 C 13.570312 -3.78125 15.03125 -3.46875 16.625 -3.46875 C 18.25 -3.46875 19.710938 -3.78125 21.015625 -4.40625 C 22.316406 -5.039062 23.335938 -5.914062 24.078125 -7.03125 C 24.828125 -8.144531 25.1875 -9.414062 25.15625 -10.84375 Z M 25.15625 -10.84375 "/></g></g></g><g fill="#ffffff" fill-opacity="1"><g transform="translate(115.041821, 238.426348)"><g><path d="M 28.34375 -30.53125 L 28.34375 0 L 24.09375 0 L 24.09375 -3.46875 C 23.59375 -2.800781 22.894531 -2.171875 22 -1.578125 C 21.113281 -0.992188 20.09375 -0.515625 18.9375 -0.140625 C 17.78125 0.222656 16.554688 0.40625 15.265625 0.40625 C 12.921875 0.40625 10.867188 -0.0703125 9.109375 -1.03125 C 7.347656 -1.988281 5.972656 -3.320312 4.984375 -5.03125 C 3.992188 -6.738281 3.5 -8.675781 3.5 -10.84375 C 3.5 -13.050781 4.007812 -15 5.03125 -16.6875 C 6.050781 -18.375 7.453125 -19.695312 9.234375 -20.65625 C 11.023438 -21.625 13.0625 -22.109375 15.34375 -22.109375 C 17.269531 -22.109375 19.003906 -21.769531 20.546875 -21.09375 C 22.085938 -20.425781 23.269531 -19.640625 24.09375 -18.734375 L 24.09375 -30.53125 Z M 16.046875 -3.375 C 17.671875 -3.375 19.097656 -3.703125 20.328125 -4.359375 C 21.566406 -5.023438 22.53125 -5.914062 23.21875 -7.03125 C 23.90625 -8.144531 24.25 -9.414062 24.25 -10.84375 C 24.25 -12.25 23.90625 -13.515625 23.21875 -14.640625 C 22.53125 -15.765625 21.566406 -16.648438 20.328125 -17.296875 C 19.097656 -17.953125 17.671875 -18.28125 16.046875 -18.28125 C 14.453125 -18.28125 13.035156 -17.953125 11.796875 -17.296875 C 10.554688 -16.648438 9.585938 -15.765625 8.890625 -14.640625 C 8.191406 -13.515625 7.84375 -12.25 7.84375 -10.84375 C 7.84375 -9.414062 8.191406 -8.144531 8.890625 -7.03125 C 9.585938 -5.914062 10.554688 -5.023438 11.796875 -4.359375 C 13.035156 -3.703125 14.453125 -3.375 16.046875 -3.375 Z M 16.046875 -3.375 "/></g></g></g><g fill="#ffffff" fill-opacity="1"><g transform="translate(148.815943, 238.426348)"><g><path d="M 27.09375 -2.84375 L 27.0625 -2.84375 C 26.34375 -2.289062 25.441406 -1.757812 24.359375 -1.25 C 23.273438 -0.75 22.078125 -0.347656 20.765625 -0.046875 C 19.460938 0.253906 18.132812 0.40625 16.78125 0.40625 C 14.144531 0.40625 11.828125 -0.0664062 9.828125 -1.015625 C 7.835938 -1.960938 6.285156 -3.265625 5.171875 -4.921875 C 4.054688 -6.585938 3.5 -8.476562 3.5 -10.59375 C 3.5 -13.019531 4.085938 -15.09375 5.265625 -16.8125 C 6.453125 -18.53125 8.019531 -19.847656 9.96875 -20.765625 C 11.925781 -21.691406 14.078125 -22.15625 16.421875 -22.15625 C 18.566406 -22.15625 20.519531 -21.707031 22.28125 -20.8125 C 24.039062 -19.914062 25.441406 -18.679688 26.484375 -17.109375 C 27.523438 -15.546875 28.046875 -13.71875 28.046875 -11.625 L 28.015625 -9.5625 L 7.84375 -9.5625 C 8.164062 -7.695312 9.191406 -6.21875 10.921875 -5.125 C 12.660156 -4.039062 14.820312 -3.5 17.40625 -3.5 C 19.332031 -3.5 20.90625 -3.785156 22.125 -4.359375 C 23.351562 -4.941406 24.351562 -5.492188 25.125 -6.015625 Z M 16.421875 -18.234375 C 14.296875 -18.234375 12.457031 -17.832031 10.90625 -17.03125 C 9.351562 -16.238281 8.359375 -14.878906 7.921875 -12.953125 L 23.71875 -12.953125 L 23.71875 -13.484375 C 23.601562 -14.421875 23.1875 -15.242188 22.46875 -15.953125 C 21.757812 -16.671875 20.867188 -17.226562 19.796875 -17.625 C 18.722656 -18.03125 17.597656 -18.234375 16.421875 -18.234375 Z M 16.421875 -18.234375 "/></g></g></g><g fill="#ffffff" fill-opacity="1"><g transform="translate(180.940537, 238.426348)"><g><path d="M 7.171875 -21.65625 L 15.21875 -5.078125 L 23.515625 -21.65625 L 28.09375 -21.65625 L 16.78125 0 L 13.28125 0 L 2.34375 -21.65625 Z M 7.171875 -21.65625 "/></g></g></g><g fill="#ffffff" fill-opacity="1"><g transform="translate(211.415602, 238.426348)"><g><path d="M 27.09375 -2.84375 L 27.0625 -2.84375 C 26.34375 -2.289062 25.441406 -1.757812 24.359375 -1.25 C 23.273438 -0.75 22.078125 -0.347656 20.765625 -0.046875 C 19.460938 0.253906 18.132812 0.40625 16.78125 0.40625 C 14.144531 0.40625 11.828125 -0.0664062 9.828125 -1.015625 C 7.835938 -1.960938 6.285156 -3.265625 5.171875 -4.921875 C 4.054688 -6.585938 3.5 -8.476562 3.5 -10.59375 C 3.5 -13.019531 4.085938 -15.09375 5.265625 -16.8125 C 6.453125 -18.53125 8.019531 -19.847656 9.96875 -20.765625 C 11.925781 -21.691406 14.078125 -22.15625 16.421875 -22.15625 C 18.566406 -22.15625 20.519531 -21.707031 22.28125 -20.8125 C 24.039062 -19.914062 25.441406 -18.679688 26.484375 -17.109375 C 27.523438 -15.546875 28.046875 -13.71875 28.046875 -11.625 L 28.015625 -9.5625 L 7.84375 -9.5625 C 8.164062 -7.695312 9.191406 -6.21875 10.921875 -5.125 C 12.660156 -4.039062 14.820312 -3.5 17.40625 -3.5 C 19.332031 -3.5 20.90625 -3.785156 22.125 -4.359375 C 23.351562 -4.941406 24.351562 -5.492188 25.125 -6.015625 Z M 16.421875 -18.234375 C 14.296875 -18.234375 12.457031 -17.832031 10.90625 -17.03125 C 9.351562 -16.238281 8.359375 -14.878906 7.921875 -12.953125 L 23.71875 -12.953125 L 23.71875 -13.484375 C 23.601562 -14.421875 23.1875 -15.242188 22.46875 -15.953125 C 21.757812 -16.671875 20.867188 -17.226562 19.796875 -17.625 C 18.722656 -18.03125 17.597656 -18.234375 16.421875 -18.234375 Z M 16.421875 -18.234375 "/></g></g></g><g fill="#ffffff" fill-opacity="1"><g transform="translate(243.540196, 238.426348)"><g><path d="M 21.28125 -16.75 C 20.8125 -17 20.238281 -17.203125 19.5625 -17.359375 C 18.894531 -17.523438 18.242188 -17.609375 17.609375 -17.609375 C 16.316406 -17.609375 15.140625 -17.3125 14.078125 -16.71875 C 13.023438 -16.132812 12.195312 -15.359375 11.59375 -14.390625 C 10.988281 -13.429688 10.6875 -12.390625 10.6875 -11.265625 L 10.6875 0 L 6.390625 0 L 6.390625 -21.65625 L 10.6875 -21.65625 L 10.6875 -17.15625 C 11.507812 -18.613281 12.617188 -19.800781 14.015625 -20.71875 C 15.421875 -21.644531 16.894531 -22.109375 18.4375 -22.109375 C 19.207031 -22.109375 19.957031 -22.03125 20.6875 -21.875 C 21.414062 -21.726562 21.988281 -21.519531 22.40625 -21.25 Z M 21.28125 -16.75 "/></g></g></g><g fill="#ffffff" fill-opacity="1"><g transform="translate(268.901721, 238.426348)"><g><path d="M 21.125 -15.84375 C 20.132812 -16.632812 18.953125 -17.289062 17.578125 -17.8125 C 16.203125 -18.34375 14.90625 -18.609375 13.6875 -18.609375 C 12.925781 -18.609375 12.125 -18.535156 11.28125 -18.390625 C 10.445312 -18.253906 9.734375 -18 9.140625 -17.625 C 8.546875 -17.257812 8.25 -16.71875 8.25 -16 C 8.28125 -15.375 8.578125 -14.851562 9.140625 -14.4375 C 9.703125 -14.019531 10.445312 -13.679688 11.375 -13.421875 C 12.3125 -13.160156 13.347656 -12.921875 14.484375 -12.703125 C 15.578125 -12.515625 16.664062 -12.269531 17.75 -11.96875 C 18.84375 -11.664062 19.820312 -11.285156 20.6875 -10.828125 C 21.550781 -10.367188 22.242188 -9.773438 22.765625 -9.046875 C 23.285156 -8.328125 23.546875 -7.429688 23.546875 -6.359375 C 23.546875 -4.898438 23.113281 -3.664062 22.25 -2.65625 C 21.382812 -1.65625 20.238281 -0.894531 18.8125 -0.375 C 17.382812 0.144531 15.832031 0.40625 14.15625 0.40625 C 12.03125 0.40625 10.039062 0.113281 8.1875 -0.46875 C 6.332031 -1.0625 4.769531 -2.101562 3.5 -3.59375 L 6.390625 -6.140625 C 7.328125 -5.210938 8.425781 -4.476562 9.6875 -3.9375 C 10.957031 -3.40625 12.40625 -3.140625 14.03125 -3.140625 C 14.769531 -3.140625 15.554688 -3.210938 16.390625 -3.359375 C 17.234375 -3.515625 17.941406 -3.789062 18.515625 -4.1875 C 19.097656 -4.582031 19.390625 -5.140625 19.390625 -5.859375 C 19.390625 -6.492188 19.097656 -7.003906 18.515625 -7.390625 C 17.941406 -7.773438 17.171875 -8.082031 16.203125 -8.3125 C 15.242188 -8.539062 14.21875 -8.753906 13.125 -8.953125 C 11.519531 -9.285156 10.023438 -9.675781 8.640625 -10.125 C 7.253906 -10.582031 6.132812 -11.25 5.28125 -12.125 C 4.425781 -13.007812 4 -14.25 4 -15.84375 C 4 -17.132812 4.429688 -18.242188 5.296875 -19.171875 C 6.160156 -20.109375 7.316406 -20.832031 8.765625 -21.34375 C 10.210938 -21.851562 11.816406 -22.109375 13.578125 -22.109375 C 14.671875 -22.109375 15.828125 -21.988281 17.046875 -21.75 C 18.273438 -21.519531 19.453125 -21.148438 20.578125 -20.640625 C 21.710938 -20.128906 22.664062 -19.460938 23.4375 -18.640625 Z M 21.125 -15.84375 "/></g></g></g><g fill="#ffffff" fill-opacity="1"><g transform="translate(295.99524, 238.426348)"><g><path d="M 27.09375 -2.84375 L 27.0625 -2.84375 C 26.34375 -2.289062 25.441406 -1.757812 24.359375 -1.25 C 23.273438 -0.75 22.078125 -0.347656 20.765625 -0.046875 C 19.460938 0.253906 18.132812 0.40625 16.78125 0.40625 C 14.144531 0.40625 11.828125 -0.0664062 9.828125 -1.015625 C 7.835938 -1.960938 6.285156 -3.265625 5.171875 -4.921875 C 4.054688 -6.585938 3.5 -8.476562 3.5 -10.59375 C 3.5 -13.019531 4.085938 -15.09375 5.265625 -16.8125 C 6.453125 -18.53125 8.019531 -19.847656 9.96875 -20.765625 C 11.925781 -21.691406 14.078125 -22.15625 16.421875 -22.15625 C 18.566406 -22.15625 20.519531 -21.707031 22.28125 -20.8125 C 24.039062 -19.914062 25.441406 -18.679688 26.484375 -17.109375 C 27.523438 -15.546875 28.046875 -13.71875 28.046875 -11.625 L 28.015625 -9.5625 L 7.84375 -9.5625 C 8.164062 -7.695312 9.191406 -6.21875 10.921875 -5.125 C 12.660156 -4.039062 14.820312 -3.5 17.40625 -3.5 C 19.332031 -3.5 20.90625 -3.785156 22.125 -4.359375 C 23.351562 -4.941406 24.351562 -5.492188 25.125 -6.015625 Z M 16.421875 -18.234375 C 14.296875 -18.234375 12.457031 -17.832031 10.90625 -17.03125 C 9.351562 -16.238281 8.359375 -14.878906 7.921875 -12.953125 L 23.71875 -12.953125 L 23.71875 -13.484375 C 23.601562 -14.421875 23.1875 -15.242188 22.46875 -15.953125 C 21.757812 -16.671875 20.867188 -17.226562 19.796875 -17.625 C 18.722656 -18.03125 17.597656 -18.234375 16.421875 -18.234375 Z M 16.421875 -18.234375 "/></g></g></g><g fill="#ffffff" fill-opacity="1"><g transform="translate(106.450757, 263.002072)"><g><path d="M 6.03125 -9.09375 C 6.8125 -9.09375 7.492188 -8.972656 8.078125 -8.734375 C 8.671875 -8.503906 9.164062 -8.175781 9.5625 -7.75 C 9.96875 -7.332031 10.269531 -6.847656 10.46875 -6.296875 C 10.664062 -5.742188 10.765625 -5.160156 10.765625 -4.546875 C 10.765625 -3.710938 10.585938 -2.953125 10.234375 -2.265625 C 9.878906 -1.578125 9.347656 -1.023438 8.640625 -0.609375 C 7.941406 -0.203125 7.070312 0 6.03125 0 L 1.890625 0 L 1.890625 -9.09375 Z M 5.96875 -1.359375 C 6.75 -1.359375 7.382812 -1.5 7.875 -1.78125 C 8.363281 -2.070312 8.722656 -2.457031 8.953125 -2.9375 C 9.179688 -3.425781 9.296875 -3.960938 9.296875 -4.546875 C 9.296875 -5.117188 9.179688 -5.644531 8.953125 -6.125 C 8.722656 -6.613281 8.363281 -7.003906 7.875 -7.296875 C 7.382812 -7.597656 6.75 -7.75 5.96875 -7.75 L 3.28125 -7.75 L 3.28125 -1.359375 Z M 5.96875 -1.359375 "/></g></g></g><g fill="#ffffff" fill-opacity="1"><g transform="translate(118.420086, 263.002072)"><g><path d="M 1.890625 -9.09375 L 8.625 -9.09375 L 8.625 -7.75 L 3.28125 -7.75 L 3.28125 -5.34375 L 7.921875 -5.34375 L 7.921875 -3.984375 L 3.28125 -3.984375 L 3.28125 -1.359375 L 8.625 -1.359375 L 8.625 0 L 1.890625 0 Z M 1.890625 -9.09375 "/></g></g></g><g fill="#ffffff" fill-opacity="1"><g transform="translate(128.647956, 263.002072)"><g><path d="M 10.21875 -9.09375 L 6.3125 0 L 4.765625 0 L 0.8125 -9.09375 L 2.40625 -9.09375 L 4.71875 -3.625 C 4.84375 -3.300781 4.984375 -2.957031 5.140625 -2.59375 C 5.304688 -2.226562 5.460938 -1.878906 5.609375 -1.546875 C 5.722656 -1.878906 5.851562 -2.226562 6 -2.59375 C 6.15625 -2.957031 6.296875 -3.296875 6.421875 -3.609375 L 8.5625 -9.09375 Z M 10.21875 -9.09375 "/></g></g></g><g fill="#ffffff" fill-opacity="1"><g transform="translate(139.668581, 263.002072)"><g><path d="M 1.890625 -9.09375 L 8.625 -9.09375 L 8.625 -7.75 L 3.28125 -7.75 L 3.28125 -5.34375 L 7.921875 -5.34375 L 7.921875 -3.984375 L 3.28125 -3.984375 L 3.28125 -1.359375 L 8.625 -1.359375 L 8.625 0 L 1.890625 0 Z M 1.890625 -9.09375 "/></g></g></g><g fill="#ffffff" fill-opacity="1"><g transform="translate(149.896452, 263.002072)"><g><path d="M 8.5625 -1.359375 L 8.5625 0 L 1.890625 0 L 1.890625 -9.09375 L 3.28125 -9.09375 L 3.28125 -1.359375 Z M 8.5625 -1.359375 "/></g></g></g><g fill="#ffffff" fill-opacity="1"><g transform="translate(159.851403, 263.002072)"><g><path d="M 11.28125 -4.546875 C 11.28125 -3.890625 11.15625 -3.273438 10.90625 -2.703125 C 10.664062 -2.140625 10.316406 -1.644531 9.859375 -1.21875 C 9.410156 -0.789062 8.878906 -0.457031 8.265625 -0.21875 C 7.648438 0.0078125 6.976562 0.125 6.25 0.125 C 5.507812 0.125 4.828125 0.0078125 4.203125 -0.21875 C 3.585938 -0.457031 3.054688 -0.789062 2.609375 -1.21875 C 2.171875 -1.644531 1.828125 -2.140625 1.578125 -2.703125 C 1.328125 -3.273438 1.203125 -3.890625 1.203125 -4.546875 C 1.203125 -5.203125 1.328125 -5.8125 1.578125 -6.375 C 1.828125 -6.945312 2.171875 -7.445312 2.609375 -7.875 C 3.054688 -8.300781 3.585938 -8.632812 4.203125 -8.875 C 4.828125 -9.113281 5.507812 -9.234375 6.25 -9.234375 C 6.976562 -9.234375 7.648438 -9.113281 8.265625 -8.875 C 8.878906 -8.632812 9.410156 -8.300781 9.859375 -7.875 C 10.316406 -7.445312 10.664062 -6.945312 10.90625 -6.375 C 11.15625 -5.8125 11.28125 -5.203125 11.28125 -4.546875 Z M 9.859375 -4.546875 C 9.859375 -5.179688 9.703125 -5.75 9.390625 -6.25 C 9.085938 -6.75 8.664062 -7.140625 8.125 -7.421875 C 7.582031 -7.710938 6.957031 -7.859375 6.25 -7.859375 C 5.53125 -7.859375 4.898438 -7.710938 4.359375 -7.421875 C 3.816406 -7.140625 3.394531 -6.75 3.09375 -6.25 C 2.789062 -5.75 2.640625 -5.179688 2.640625 -4.546875 C 2.640625 -3.910156 2.789062 -3.34375 3.09375 -2.84375 C 3.394531 -2.351562 3.816406 -1.960938 4.359375 -1.671875 C 4.898438 -1.378906 5.53125 -1.234375 6.25 -1.234375 C 6.957031 -1.234375 7.582031 -1.378906 8.125 -1.671875 C 8.664062 -1.960938 9.085938 -2.359375 9.390625 -2.859375 C 9.703125 -3.359375 9.859375 -3.921875 9.859375 -4.546875 Z M 9.859375 -4.546875 "/></g></g></g><g fill="#ffffff" fill-opacity="1"><g transform="translate(172.34058, 263.002072)"><g><path d="M 6.484375 -9.09375 C 7.003906 -9.09375 7.476562 -8.96875 7.90625 -8.71875 C 8.332031 -8.476562 8.675781 -8.144531 8.9375 -7.71875 C 9.195312 -7.300781 9.328125 -6.832031 9.328125 -6.3125 C 9.328125 -5.769531 9.191406 -5.28125 8.921875 -4.84375 C 8.648438 -4.40625 8.285156 -4.054688 7.828125 -3.796875 C 7.378906 -3.535156 6.882812 -3.40625 6.34375 -3.40625 L 3.28125 -3.40625 L 3.28125 0 L 1.890625 0 L 1.890625 -9.09375 Z M 6.265625 -4.765625 C 6.546875 -4.765625 6.804688 -4.832031 7.046875 -4.96875 C 7.296875 -5.113281 7.492188 -5.300781 7.640625 -5.53125 C 7.785156 -5.769531 7.859375 -6.03125 7.859375 -6.3125 C 7.859375 -6.570312 7.785156 -6.8125 7.640625 -7.03125 C 7.492188 -7.25 7.296875 -7.421875 7.046875 -7.546875 C 6.804688 -7.679688 6.546875 -7.75 6.265625 -7.75 L 3.28125 -7.75 L 3.28125 -4.765625 Z M 6.265625 -4.765625 "/></g></g></g><g fill="#ffffff" fill-opacity="1"><g transform="translate(182.906337, 263.002072)"><g><path d="M 3.265625 -9.09375 L 6.765625 -4.25 L 10.265625 -9.09375 L 11.625 -9.09375 L 11.625 0 L 10.21875 0 L 10.21875 -3.8125 C 10.21875 -4.363281 10.222656 -4.890625 10.234375 -5.390625 C 10.253906 -5.890625 10.296875 -6.390625 10.359375 -6.890625 L 7.15625 -2.609375 L 6.3125 -2.609375 L 3.140625 -6.875 C 3.203125 -6.382812 3.238281 -5.890625 3.25 -5.390625 C 3.269531 -4.890625 3.28125 -4.363281 3.28125 -3.8125 L 3.28125 0 L 1.890625 0 L 1.890625 -9.09375 Z M 3.265625 -9.09375 "/></g></g></g><g fill="#ffffff" fill-opacity="1"><g transform="translate(196.409197, 263.002072)"><g><path d="M 1.890625 -9.09375 L 8.625 -9.09375 L 8.625 -7.75 L 3.28125 -7.75 L 3.28125 -5.34375 L 7.921875 -5.34375 L 7.921875 -3.984375 L 3.28125 -3.984375 L 3.28125 -1.359375 L 8.625 -1.359375 L 8.625 0 L 1.890625 0 Z M 1.890625 -9.09375 "/></g></g></g><g fill="#ffffff" fill-opacity="1"><g transform="translate(206.637068, 263.002072)"><g><path d="M 9.40625 -9.09375 L 10.8125 -9.09375 L 10.8125 0 L 9.453125 0 L 3.0625 -7.078125 C 3.113281 -6.515625 3.160156 -5.960938 3.203125 -5.421875 C 3.253906 -4.878906 3.28125 -4.332031 3.28125 -3.78125 L 3.28125 0 L 1.890625 0 L 1.890625 -9.09375 L 3.21875 -9.09375 L 9.625 -1.859375 C 9.570312 -2.285156 9.523438 -2.742188 9.484375 -3.234375 C 9.453125 -3.722656 9.429688 -4.210938 9.421875 -4.703125 C 9.410156 -5.203125 9.40625 -5.671875 9.40625 -6.109375 Z M 9.40625 -9.09375 "/></g></g></g><g fill="#ffffff" fill-opacity="1"><g transform="translate(219.334172, 263.002072)"><g><path d="M 3.984375 0 L 3.984375 -7.75 L 0.921875 -7.75 L 0.921875 -9.09375 L 8.53125 -9.09375 L 8.53125 -7.75 L 5.390625 -7.75 L 5.390625 0 Z M 3.984375 0 "/></g></g></g><g fill="#ffffff" fill-opacity="1"><g transform="translate(228.782277, 263.002072)"><g/></g></g><g fill="#ffffff" fill-opacity="1"><g transform="translate(233.915707, 263.002072)"><g><path d="M 11.28125 -4.546875 C 11.28125 -3.890625 11.15625 -3.273438 10.90625 -2.703125 C 10.664062 -2.140625 10.316406 -1.644531 9.859375 -1.21875 C 9.410156 -0.789062 8.878906 -0.457031 8.265625 -0.21875 C 7.648438 0.0078125 6.976562 0.125 6.25 0.125 C 5.507812 0.125 4.828125 0.0078125 4.203125 -0.21875 C 3.585938 -0.457031 3.054688 -0.789062 2.609375 -1.21875 C 2.171875 -1.644531 1.828125 -2.140625 1.578125 -2.703125 C 1.328125 -3.273438 1.203125 -3.890625 1.203125 -4.546875 C 1.203125 -5.203125 1.328125 -5.8125 1.578125 -6.375 C 1.828125 -6.945312 2.171875 -7.445312 2.609375 -7.875 C 3.054688 -8.300781 3.585938 -8.632812 4.203125 -8.875 C 4.828125 -9.113281 5.507812 -9.234375 6.25 -9.234375 C 6.976562 -9.234375 7.648438 -9.113281 8.265625 -8.875 C 8.878906 -8.632812 9.410156 -8.300781 9.859375 -7.875 C 10.316406 -7.445312 10.664062 -6.945312 10.90625 -6.375 C 11.15625 -5.8125 11.28125 -5.203125 11.28125 -4.546875 Z M 9.859375 -4.546875 C 9.859375 -5.179688 9.703125 -5.75 9.390625 -6.25 C 9.085938 -6.75 8.664062 -7.140625 8.125 -7.421875 C 7.582031 -7.710938 6.957031 -7.859375 6.25 -7.859375 C 5.53125 -7.859375 4.898438 -7.710938 4.359375 -7.421875 C 3.816406 -7.140625 3.394531 -6.75 3.09375 -6.25 C 2.789062 -5.75 2.640625 -5.179688 2.640625 -4.546875 C 2.640625 -3.910156 2.789062 -3.34375 3.09375 -2.84375 C 3.394531 -2.351562 3.816406 -1.960938 4.359375 -1.671875 C 4.898438 -1.378906 5.53125 -1.234375 6.25 -1.234375 C 6.957031 -1.234375 7.582031 -1.378906 8.125 -1.671875 C 8.664062 -1.960938 9.085938 -2.359375 9.390625 -2.859375 C 9.703125 -3.359375 9.859375 -3.921875 9.859375 -4.546875 Z M 9.859375 -4.546875 "/></g></g></g><g fill="#ffffff" fill-opacity="1"><g transform="translate(246.404884, 263.002072)"><g><path d="M 9.40625 -9.09375 L 10.8125 -9.09375 L 10.8125 0 L 9.453125 0 L 3.0625 -7.078125 C 3.113281 -6.515625 3.160156 -5.960938 3.203125 -5.421875 C 3.253906 -4.878906 3.28125 -4.332031 3.28125 -3.78125 L 3.28125 0 L 1.890625 0 L 1.890625 -9.09375 L 3.21875 -9.09375 L 9.625 -1.859375 C 9.570312 -2.285156 9.523438 -2.742188 9.484375 -3.234375 C 9.453125 -3.722656 9.429688 -4.210938 9.421875 -4.703125 C 9.410156 -5.203125 9.40625 -5.671875 9.40625 -6.109375 Z M 9.40625 -9.09375 "/></g></g></g><g fill="#ffffff" fill-opacity="1"><g transform="translate(259.101988, 263.002072)"><g><path d="M 8.5625 -1.359375 L 8.5625 0 L 1.890625 0 L 1.890625 -9.09375 L 3.28125 -9.09375 L 3.28125 -1.359375 Z M 8.5625 -1.359375 "/></g></g></g><g fill="#ffffff" fill-opacity="1"><g transform="translate(269.05694, 263.002072)"><g><path d="M 7.15625 0 L 1.796875 0 L 1.796875 -1.359375 L 3.765625 -1.359375 L 3.765625 -7.75 L 1.796875 -7.75 L 1.796875 -9.09375 L 7.15625 -9.09375 L 7.15625 -7.75 L 5.171875 -7.75 L 5.171875 -1.359375 L 7.15625 -1.359375 Z M 7.15625 0 "/></g></g></g><g fill="#ffffff" fill-opacity="1"><g transform="translate(278.011197, 263.002072)"><g><path d="M 9.40625 -9.09375 L 10.8125 -9.09375 L 10.8125 0 L 9.453125 0 L 3.0625 -7.078125 C 3.113281 -6.515625 3.160156 -5.960938 3.203125 -5.421875 C 3.253906 -4.878906 3.28125 -4.332031 3.28125 -3.78125 L 3.28125 0 L 1.890625 0 L 1.890625 -9.09375 L 3.21875 -9.09375 L 9.625 -1.859375 C 9.570312 -2.285156 9.523438 -2.742188 9.484375 -3.234375 C 9.453125 -3.722656 9.429688 -4.210938 9.421875 -4.703125 C 9.410156 -5.203125 9.40625 -5.671875 9.40625 -6.109375 Z M 9.40625 -9.09375 "/></g></g></g><g fill="#ffffff" fill-opacity="1"><g transform="translate(290.708302, 263.002072)"><g><path d="M 1.890625 -9.09375 L 8.625 -9.09375 L 8.625 -7.75 L 3.28125 -7.75 L 3.28125 -5.34375 L 7.921875 -5.34375 L 7.921875 -3.984375 L 3.28125 -3.984375 L 3.28125 -1.359375 L 8.625 -1.359375 L 8.625 0 L 1.890625 0 Z M 1.890625 -9.09375 "/></g></g></g></svg>